<?xml version="1.0" encoding="UTF-8"?>
<svg version="1.1" xmlns="http://www.w3.org/2000/svg" width="1536" height="672">
<path d="M0 0 C506.88 0 1013.76 0 1536 0 C1536 221.76 1536 443.52 1536 672 C1029.12 672 522.24 672 0 672 C0 450.24 0 228.48 0 0 Z " fill="#FDFEFD" transform="translate(0,0)"/>
<path d="M0 0 C0.72030396 -0.00175232 1.44060791 -0.00350464 2.18273926 -0.00531006 C4.57497534 -0.00972835 6.9671381 -0.00679068 9.359375 -0.00341797 C11.01464858 -0.00409101 12.66992207 -0.00506105 14.32519531 -0.00631714 C17.79883767 -0.00779408 21.27245437 -0.00563968 24.74609375 -0.00097656 C29.20869998 0.00472073 33.67124608 0.0014417 38.1338501 -0.00454903 C41.5532273 -0.00815474 44.97259015 -0.00701601 48.39196777 -0.00442123 C50.03788256 -0.00375199 51.68379863 -0.00458029 53.32971191 -0.00690079 C55.62609331 -0.00942749 57.92237599 -0.0055865 60.21875 0 C61.52811523 0.00079559 62.83748047 0.00159119 64.18652344 0.00241089 C67.109375 0.12939453 67.109375 0.12939453 68.109375 1.12939453 C68.20699724 3.46966577 68.23935104 5.78037834 68.22962952 8.12110901 C68.23048394 8.86108641 68.23133837 9.60106381 68.23221868 10.36346477 C68.23387569 12.86171866 68.22834853 15.35990652 68.22290039 17.8581543 C68.22261854 19.64153034 68.22277621 21.4249065 68.2233429 23.20828247 C68.22363096 28.06551644 68.21773288 32.92272594 68.21076894 37.7799542 C68.20453679 42.85020402 68.20393171 47.92045434 68.20274353 52.9907074 C68.1996298 62.59903146 68.19141586 72.20734421 68.18139404 81.81566328 C68.17023419 92.75138981 68.16472278 103.68711687 68.15969861 114.62284768 C68.14923328 137.12503769 68.13088729 159.62721218 68.109375 182.12939453 C89.559375 182.12939453 111.009375 182.12939453 133.109375 182.12939453 C133.1403125 192.24595703 133.1403125 192.24595703 133.171875 202.56689453 C133.180979 204.69827881 133.19008301 206.82966309 133.19946289 209.02563477 C133.202382 210.70475196 133.20493057 212.38386986 133.20703125 214.06298828 C133.21214722 214.94313599 133.21726318 215.82328369 133.22253418 216.73010254 C133.22284396 218.86353332 133.17181567 220.99687767 133.109375 223.12939453 C131.38273429 224.85603525 129.07259005 224.25551056 126.71887207 224.25637817 C124.96462669 224.26060791 124.96462669 224.26060791 123.17494202 224.2649231 C121.88035568 224.26289886 120.58576935 224.26087463 119.25195312 224.25878906 C117.88398695 224.26014309 116.51602114 224.26192302 115.14805603 224.26409912 C111.42295126 224.26867334 107.69787406 224.26688395 103.97276878 224.26372004 C100.08279722 224.26119637 96.19282809 224.26353399 92.30285645 224.2651062 C85.76912002 224.26692788 79.23539487 224.26452164 72.70166016 224.25976562 C65.13709817 224.25432301 57.57256314 224.25608566 50.0080018 224.26159203 C43.52479016 224.26612321 37.04158665 224.26677368 30.55837393 224.26415336 C26.68116915 224.26259061 22.80397705 224.26239676 18.92677307 224.26568985 C15.28249913 224.26856864 11.63826009 224.26659274 7.99398994 224.26079559 C6.01059645 224.25883242 4.02720002 224.26182184 2.04380798 224.2649231 C0.87431107 224.26210327 -0.29518585 224.25928345 -1.50012207 224.25637817 C-2.52293526 224.25600115 -3.54574844 224.25562412 -4.59955597 224.25523567 C-6.890625 224.12939453 -6.890625 224.12939453 -7.890625 223.12939453 C-7.99077836 220.2743566 -8.02501385 217.4434345 -8.01760864 214.58789062 C-8.01916863 213.68119314 -8.02072862 212.77449566 -8.02233589 211.84032249 C-8.02634999 208.77780953 -8.02315466 205.71534544 -8.02001953 202.65283203 C-8.02137339 200.46714244 -8.02315323 198.28145308 -8.02532959 196.09576416 C-8.02990575 190.14139501 -8.02811361 184.18704311 -8.0249505 178.23267365 C-8.02242784 172.0164434 -8.02476418 165.80021468 -8.02633667 159.58398438 C-8.02827552 148.47295163 -8.02515775 137.3619257 -8.02007733 126.25089431 C-8.01560929 116.16677069 -8.01638522 106.08265857 -8.02099609 95.99853516 C-8.02634181 84.30173114 -8.02834272 72.60493384 -8.02538383 60.90812874 C-8.02382062 54.71143441 -8.02362848 48.51474802 -8.02692032 42.3180542 C-8.0297979 36.49380449 -8.02782544 30.66957662 -8.02202606 24.84532928 C-8.02069785 22.70104763 -8.0210936 20.55676416 -8.02328873 18.41248322 C-8.02599785 15.49859635 -8.02262203 12.58478069 -8.01760864 9.67089844 C-8.01983936 8.81070288 -8.02207009 7.95050732 -8.02436841 7.06424522 C-7.99928796 -0.38644715 -7.2926041 0.00443111 0 0 Z " fill="#818181" transform="translate(761.890625,227.87060546875)"/>
<path d="M0 0 C24.42 0 48.84 0 74 0 C75.65784589 1.65784589 75.12210963 3.65175861 75.12908131 5.86641508 C75.12616847 6.56776388 75.12325563 7.26911268 75.12025452 7.99171448 C75.12110894 8.73169188 75.12196337 9.47166928 75.12284368 10.23407024 C75.12450069 12.73232413 75.11897353 15.23051198 75.11352539 17.72875977 C75.11324354 19.51213581 75.11340121 21.29551197 75.1139679 23.07888794 C75.11425596 27.93612191 75.10835788 32.79333141 75.10139394 37.65055966 C75.09516179 42.72080948 75.09455671 47.79105981 75.09336853 52.86131287 C75.0902548 62.46963693 75.08204086 72.07794968 75.07201904 81.68626875 C75.06085919 92.62199528 75.05534778 103.55772234 75.05032361 114.49345315 C75.03985828 136.99564316 75.02151229 159.49781765 75 182 C96.45 182 117.9 182 140 182 C140 195.86 140 209.72 140 224 C93.8 224 47.6 224 0 224 C0 150.08 0 76.16 0 0 Z " fill="#808080" transform="translate(603,228)"/>
<path d="M0 0 C27.06 0 54.12 0 82 0 C82.495 1.485 82.495 1.485 83 3 C83.66 3 84.32 3 85 3 C85.39832031 3.80824219 85.79664063 4.61648437 86.20703125 5.44921875 C86.73683594 6.51785156 87.26664063 7.58648437 87.8125 8.6875 C88.33457031 9.74324219 88.85664062 10.79898438 89.39453125 11.88671875 C90.92452846 14.97447154 90.92452846 14.97447154 92.69921875 17.64453125 C94 20 94 20 94 24 C94.66 24 95.32 24 96 24 C98.24482171 26.82847536 100.09133263 29.93736792 102 33 C102.4228125 33.67675781 102.845625 34.35351562 103.28125 35.05078125 C104.99338649 37.90638032 106 39.61332095 106 43 C106.99 43 107.98 43 109 43 C112.48096358 49.29205101 115.84565227 55.60047847 118.921875 62.1015625 C119.85858353 64.1613393 119.85858353 64.1613393 122 65 C122 65.66 122 66.32 122 67 C122.66 67 123.32 67 124 67 C124.4125 68.03125 124.825 69.0625 125.25 70.125 C126.77168503 73.71442928 128.82063008 76.76852046 131 80 C131 80.66 131 81.32 131 82 C131.66 82 132.32 82 133 82 C133 82.66 133 83.32 133 84 C133.66 84 134.32 84 135 84 C145 104 145 104 146.0234375 106.2421875 C146.98482366 108.25420372 146.98482366 108.25420372 149.5 109.875 C152.45034017 112.38278915 153.07473786 114.29895144 154 118 C154.66 118 155.32 118 156 118 C157.66478492 120.92051026 158.24876665 123.00073859 158.24050903 126.35333252 C158.24463303 127.64894608 158.24463303 127.64894608 158.24884033 128.97073364 C158.2380545 130.37982498 158.2380545 130.37982498 158.22705078 131.81738281 C158.22734283 132.81283112 158.22763489 133.80827942 158.22793579 134.83389282 C158.22654261 138.12372559 158.21098178 141.4133318 158.1953125 144.703125 C158.19158233 146.98427202 158.18873538 149.26542063 158.18673706 151.54656982 C158.17910092 157.55041935 158.1594525 163.55417211 158.1373291 169.5579834 C158.11327326 176.76163737 158.10408961 183.9653237 158.09242249 191.16900635 C158.07302819 202.1127382 158.03470531 213.05625773 158 224 C131.93 224 105.86 224 79 224 C78.96261719 217.70550781 78.92523437 211.41101563 78.88671875 204.92578125 C78.85644278 200.93812365 78.82529736 196.95051088 78.79101562 192.96289062 C78.73668513 186.63356781 78.68557534 180.30433369 78.65356445 173.97485352 C78.62755514 168.87187597 78.58716931 163.76919617 78.53681374 158.66640282 C78.52012901 156.71960338 78.50862474 154.77275243 78.50238609 152.82589149 C78.49276254 150.0988608 78.46472414 147.37259461 78.43237305 144.64575195 C78.43380814 143.84086334 78.43524323 143.03597473 78.4367218 142.20669556 C78.35942085 137.59927949 77.77270905 134.70071307 75 131 C72.05001488 126.9220794 70.48062995 124.04661443 70 119 C68.515 118.505 68.515 118.505 67 118 C66.67 116.35 66.34 114.7 66 113 C65.34 113 64.68 113 64 113 C63.69707031 112.3709375 63.39414062 111.741875 63.08203125 111.09375 C60.64852241 106.12190424 58.10552329 101.3847973 55.015625 96.7890625 C54 95 54 95 53.546875 92.8984375 C53.10762953 90.60520367 53.10762953 90.60520367 50 89 C47 83.66666667 47 83.66666667 47 81 C46.34 81 45.68 81 45 81 C44.16180842 79.37750059 43.3295884 77.75191503 42.5 76.125 C42.0359375 75.22007812 41.571875 74.31515625 41.09375 73.3828125 C40 71 40 71 40 69 C39.34 69 38.68 69 38 69 C37.48050781 67.92621094 36.96101562 66.85242188 36.42578125 65.74609375 C35.7216835 64.30973435 35.01723775 62.8735455 34.3125 61.4375 C33.97283203 60.73302734 33.63316406 60.02855469 33.28320312 59.30273438 C31.20847537 55.09510892 28.9107388 51.33663897 26.11791992 47.57006836 C24.65066111 45.5093692 23.56691511 43.35255707 22.5 41.0625 C20.92641653 37.77046347 19.23594856 34.7678552 17.1875 31.75 C15.01397603 28.40820689 14.49420992 26.0463206 15 22 C14.34 22 13.68 22 13 22 C13 21.34 13 20.68 13 20 C12.34 20 11.68 20 11 20 C11 19.01 11 18.02 11 17 C10.34 17 9.68 17 9 17 C8.67 15.35 8.34 13.7 8 12 C7.34 12 6.68 12 6 12 C1.68359886 7.57832078 1.09146813 6.54880875 0 0 Z " fill="#818181" transform="translate(844,228)"/>
<path d="M0 0 C9.48346015 -0.04627819 18.96688161 -0.08184612 28.45042992 -0.10362434 C32.85371251 -0.11407518 37.25691802 -0.12825796 41.66015625 -0.15087891 C45.90709824 -0.17256112 50.15396596 -0.18455883 54.40095901 -0.18975449 C56.02373042 -0.19345858 57.64649762 -0.20069146 59.26923752 -0.21146011 C61.53684117 -0.2259138 63.80413528 -0.22798054 66.07177734 -0.22705078 C67.36417328 -0.231492 68.65656921 -0.23593323 69.98812866 -0.24050903 C73 0 73 0 75 2 C75.8515625 4.05859375 75.8515625 4.05859375 76.625 6.4375 C77.01558594 7.61119141 77.01558594 7.61119141 77.4140625 8.80859375 C78 11 78 11 78 14 C78.66 14 79.32 14 80 14 C82.99460932 21.68662392 85.92493504 29.39757864 88.8125 37.125 C89.12646729 37.95427002 89.44043457 38.78354004 89.76391602 39.63793945 C90.19982056 40.81102661 90.19982056 40.81102661 90.64453125 42.0078125 C90.90596924 42.70535645 91.16740723 43.40290039 91.43676758 44.12158203 C92 46 92 46 92 49 C93.485 49.495 93.485 49.495 95 50 C95 51.65 95 53.3 95 55 C95.66 55 96.32 55 97 55 C99.28571429 63.42857143 99.28571429 63.42857143 99 68 C99.66 68 100.32 68 101 68 C101.50559908 69.43554025 102.0042749 70.8735202 102.5 72.3125 C102.7784375 73.11300781 103.056875 73.91351563 103.34375 74.73828125 C104 77 104 77 104 80 C104.66 80 105.32 80 106 80 C107.66666667 85 109.33333333 90 111 95 C111.66 95 112.32 95 113 95 C113.19335938 95.68707031 113.38671875 96.37414062 113.5859375 97.08203125 C113.84632812 97.98308594 114.10671875 98.88414062 114.375 99.8125 C114.63023438 100.70582031 114.88546875 101.59914063 115.1484375 102.51953125 C115.95266661 105.20467896 115.95266661 105.20467896 118 108 C118 108.99 118 109.98 118 111 C118.66 111 119.32 111 120 111 C120.64771508 112.91603157 121.29309948 114.83285113 121.9375 116.75 C122.29714844 117.81734375 122.65679688 118.8846875 123.02734375 119.984375 C123.77982119 122.31735725 124.44977244 124.61374995 125 127 C125.66 127 126.32 127 127 127 C127.12117188 127.60328125 127.24234375 128.2065625 127.3671875 128.828125 C127.53476563 129.62734375 127.70234375 130.4265625 127.875 131.25 C128.03742188 132.03890625 128.19984375 132.8278125 128.3671875 133.640625 C128.91790637 136.01770839 128.91790637 136.01770839 130.0703125 138.109375 C131 140 131 140 131 143 C131.99 143.33 132.98 143.66 134 144 C134.33 146.31 134.66 148.62 135 151 C135.66 151 136.32 151 137 151 C137 152.32 137 153.64 137 155 C137.66 155 138.32 155 139 155 C140.17430074 158.2681432 141.33811256 161.53992515 142.5 164.8125 C142.83386719 165.74126953 143.16773438 166.67003906 143.51171875 167.62695312 C143.98544922 168.9659668 143.98544922 168.9659668 144.46875 170.33203125 C144.76201172 171.15421143 145.05527344 171.9763916 145.35742188 172.82348633 C146 175 146 175 146 178 C146.66 178 147.32 178 148 178 C149.25664978 180.90600261 150 182.79604584 150 186 C150.66 186 151.32 186 152 186 C153.49821059 189.37097383 154 191.20442119 154 195 C154.66 195 155.32 195 156 195 C156.30292969 195.88300781 156.60585937 196.76601563 156.91796875 197.67578125 C159.31637647 204.5462969 161.85306643 211.15790064 165.08203125 217.6953125 C166 220 166 220 166 224 C156.42074639 224.09266788 146.841647 224.16374845 137.262043 224.20724869 C132.81385723 224.22812638 128.36597806 224.25644702 123.91796875 224.30175781 C119.62560766 224.34520957 115.33354152 224.36913574 111.04097748 224.37950897 C109.40307725 224.3869016 107.76519323 224.40133775 106.12741852 224.42292023 C103.83361391 224.45194647 101.54102894 224.45595651 99.24707031 224.45410156 C97.94135071 224.46298401 96.6356311 224.47186646 95.29034424 224.48101807 C91.4446497 223.91881289 90.31968301 223.04911339 88 220 C86.83984375 217.484375 86.83984375 217.484375 85.9375 214.75 C85.60492187 213.77546875 85.27234375 212.8009375 84.9296875 211.796875 C84.62289063 210.87390625 84.31609375 209.9509375 84 209 C82.02873258 203.39745049 79.69294814 198.02102324 77.203125 192.62890625 C76.17913029 190.39141131 75.20058881 188.14429779 74.25 185.875 C73.27548077 183.15330593 73.27548077 183.15330593 72 182 C71.60545777 180.15400312 71.25823134 178.29774178 70.9375 176.4375 C70.76089844 175.42558594 70.58429688 174.41367187 70.40234375 173.37109375 C70.26957031 172.58863281 70.13679688 171.80617188 70 171 C69.34 171 68.68 171 68 171 C67.16320723 168.37605694 66.33043058 165.75095616 65.5 163.125 C65.14228516 162.00544922 65.14228516 162.00544922 64.77734375 160.86328125 C63 155.2265625 63 155.2265625 63 153 C62.34 153 61.68 153 61 153 C59.7359941 150.11084365 58.85557381 147.39134677 58.125 144.3125 C56.92303778 139.32761792 54.97701673 134.72021297 53 130 C52.61714844 129.04867187 52.23429687 128.09734375 51.83984375 127.1171875 C49.70734658 121.86479897 47.41902624 116.78547891 44.8125 111.75 C42.45681625 107.11695446 41.00123626 103.08961764 40 98 C39.62830192 96.33259384 39.25326676 94.66592828 38.875 93 C38.58225892 91.66690215 38.2901934 90.33365476 38 89 C37.34 89 36.68 89 36 89 C35.67 87.35 35.34 85.7 35 84 C34.34 84 33.68 84 33 84 C32.88785156 83.42636719 32.77570313 82.85273438 32.66015625 82.26171875 C30.14836898 71.44297487 24.87727101 61.62781736 19.87207031 51.78100586 C19.51854492 51.08499268 19.16501953 50.38897949 18.80078125 49.671875 C18.48665283 49.06053711 18.17252441 48.44919922 17.84887695 47.81933594 C16.62204827 45.18996368 15.79341544 42.46879955 14.91796875 39.70703125 C13.70577855 36.13235974 12.33247419 32.63172857 10.9375 29.125 C10.67984863 28.47007568 10.42219727 27.81515137 10.15673828 27.14038086 C8.97229392 24.18463637 7.77441193 21.66161789 6 19 C5.41037685 16.66607501 4.99168083 14.32909599 4.5625 11.9609375 C4.376875 11.31382812 4.19125 10.66671875 4 10 C3.34 9.67 2.68 9.34 2 9 C0.37265234 5.65489648 0 3.81164166 0 0 Z " fill="#818181" transform="translate(1065,228)"/>
<path d="M0 0 C9.5964878 -0.11576329 19.19273592 -0.2046484 28.78976917 -0.25906086 C33.24592024 -0.28517406 37.70159424 -0.32060273 42.1574707 -0.37719727 C46.45632818 -0.43145685 50.75472634 -0.46140755 55.05389977 -0.47438622 C56.69544395 -0.48363712 58.3369625 -0.5017021 59.97831154 -0.52865028 C62.27491526 -0.5648628 64.56961259 -0.56994902 66.86645508 -0.56762695 C68.17439529 -0.57873001 69.48233551 -0.58983307 70.82991028 -0.60127258 C74 0 74 0 75.90678406 2.37214661 C77.03012288 5.07240886 77.59814395 7.41997365 78 10.3125 C78.79360917 15.20533011 80.10912178 19.4390877 82 24 C82.7072019 25.89658691 83.41417173 27.79326367 84.1171875 29.69140625 C84.78511436 31.43806454 85.4831891 33.17323366 86.1953125 34.90234375 C89.00241805 41.83606256 90.81952714 48.51368395 92.25390625 55.84765625 C93.06991981 59.29542035 94.29402619 61.99282356 96.015625 65.05859375 C98.33643354 69.63574393 100 74.86395048 100 80 C100.66 80 101.32 80 102 80 C102.30292969 81.06476563 102.60585938 82.12953125 102.91796875 83.2265625 C105.35360996 91.69298856 107.97252038 99.99480791 111.08203125 108.2421875 C112 111 112 111 112 114 C112.66 114 113.32 114 114 114 C114.09796875 114.71285156 114.1959375 115.42570312 114.296875 116.16015625 C115.29234337 122.75961226 115.29234337 122.75961226 118.0625 128.75 C120.27458979 132.46060222 120.6544258 134.76671603 121 139 C121.66 139 122.32 139 123 139 C123.50471197 140.76949612 124.00360685 142.54065223 124.5 144.3125 C124.7784375 145.29863281 125.056875 146.28476562 125.34375 147.30078125 C126 150 126 150 126 153 C126.66 153 127.32 153 128 153 C128.48066535 154.89545392 128.95946743 156.79138039 129.4375 158.6875 C129.70433594 159.74324219 129.97117187 160.79898438 130.24609375 161.88671875 C130.89897932 164.5828317 131.47941193 167.2757576 132 170 C132.66 170 133.32 170 134 170 C134.14695312 170.97839844 134.14695312 170.97839844 134.296875 171.9765625 C135.03074264 176.26589235 135.5647604 179.36692422 138.0625 183 C140.75996024 187.17671262 140.80700485 191.11722259 141 196 C141.66 196 142.32 196 143 196 C144.01050337 199.55960564 145.00653404 203.12310522 146 206.6875 C146.28617188 207.69490234 146.57234375 208.70230469 146.8671875 209.74023438 C147.13789063 210.71669922 147.40859375 211.69316406 147.6875 212.69921875 C148.06455078 214.04246216 148.06455078 214.04246216 148.44921875 215.4128418 C149 218 149 218 149 223 C125.24 223 101.48 223 77 223 C70 201 70 201 69 194 C68.34 194 67.68 194 67 194 C66.505 190.535 66.505 190.535 66 187 C65.34 187 64.68 187 64 187 C63.608125 185.783125 63.21625 184.56625 62.8125 183.3125 C61.5033563 179.360251 60.03098188 175.49639527 58.5 171.625 C56.54295314 166.60014994 54.96252566 161.59981605 53.625 156.37890625 C53.10392346 154.39555868 52.47136814 152.44192716 51.8125 150.5 C51 148 51 148 51 145 C50.34 145 49.68 145 49 145 C48.76925781 144.20078125 48.53851563 143.4015625 48.30078125 142.578125 C46.62077746 136.92056284 44.84099577 131.42125337 42.5 126 C40.25628409 120.79897046 38.58162444 115.54729013 36.97265625 110.12109375 C35.35516483 104.93083011 33.48987296 99.74367451 30.890625 94.95703125 C29.54453892 91.99918422 29.87699748 89.19806559 30 86 C29.34 86 28.68 86 28 86 C27.84442627 85.45698242 27.68885254 84.91396484 27.52856445 84.35449219 C24.86959843 75.13153922 22.23021652 66.04969263 18.3515625 57.25390625 C15.83103044 51.18568888 13.78272313 44.94143516 11.64453125 38.73046875 C10.37333709 35.04204103 9.02218261 31.39283611 7.625 27.75 C6.04457905 23.47475872 5.34270504 19.54084182 5 15 C4.34 15 3.68 15 3 15 C2.48827906 13.6293189 1.99122508 12.25315925 1.5 10.875 C1.08234375 9.72644531 1.08234375 9.72644531 0.65625 8.5546875 C-0.09602189 5.62620051 -0.04350515 3.01273146 0 0 Z " fill="#808080" transform="translate(267,228)"/>
<path d="M0 0 C1.27685165 0.00222061 2.55370331 0.00444122 3.86924744 0.00672913 C4.57165054 0.0065831 5.27405365 0.00643707 5.9977417 0.00628662 C8.32985983 0.00698579 10.66189904 0.01477835 12.9940033 0.02259827 C14.60683142 0.02446243 16.21966012 0.02588634 17.83248901 0.02688599 C22.08550062 0.03071129 26.33847828 0.04054167 30.59147644 0.05158997 C34.92812135 0.06180383 39.26477171 0.06638355 43.60142517 0.07142639 C52.11641474 0.08216393 60.63137667 0.09924049 69.14634705 0.12025452 C69.1696723 28.91780363 69.18732438 57.71535134 69.19815922 86.51290798 C69.20332297 99.88308484 69.21033691 113.25325533 69.2217865 126.62342834 C69.23173092 138.27224658 69.23819989 149.92106057 69.24043554 161.56988293 C69.24174306 167.74200246 69.2448315 173.91410986 69.2520771 180.08622551 C69.25883351 185.8882975 69.26096479 191.69035228 69.25945473 197.49242783 C69.25973123 199.62864716 69.26173859 201.76486704 69.26555252 203.90108299 C69.27048384 206.80407202 69.26934742 209.70699498 69.26660156 212.60998535 C69.2695144 213.46697208 69.27242725 214.32395882 69.27542835 215.20691484 C69.26046826 221.00613331 69.26046826 221.00613331 68.14634705 222.12025452 C65.90704819 222.21461981 63.66472955 222.23767779 61.42344666 222.23377991 C60.72104355 222.23392593 60.01864044 222.23407196 59.29495239 222.23422241 C56.96283426 222.23352324 54.63079505 222.22573069 52.2986908 222.21791077 C50.68586267 222.2160466 49.07303397 222.21462269 47.46020508 222.21362305 C43.20719347 222.20979775 38.95421581 222.19996737 34.70121765 222.18891907 C30.36457275 222.1787052 26.02792238 222.17412548 21.69126892 222.16908264 C13.17627936 222.1583451 4.66131742 222.14126855 -3.85365295 222.12025452 C-3.87697821 193.3227054 -3.89463029 164.5251577 -3.90546513 135.72760105 C-3.91062888 122.35742419 -3.91764282 108.9872537 -3.92909241 95.61708069 C-3.93903683 83.96826246 -3.9455058 72.31944846 -3.94774145 60.6706261 C-3.94904897 54.49850657 -3.95213741 48.32639918 -3.95938301 42.15428352 C-3.96613942 36.35221154 -3.96827069 30.55015675 -3.96676064 24.74808121 C-3.96703714 22.61186187 -3.9690445 20.47564199 -3.97285843 18.33942604 C-3.97778975 15.43643701 -3.97665333 12.53351405 -3.97390747 9.63052368 C-3.97682031 8.77353695 -3.97973315 7.91655022 -3.98273426 7.03359419 C-3.96502091 0.16708818 -3.96502091 0.16708818 0 0 Z " fill="#818181" transform="translate(512.8536529541016,228.87974548339844)"/>
<path d="M0 0 C15.18 0 30.36 0 46 0 C46.495 1.98 46.495 1.98 47 4 C47.99 4.33 48.98 4.66 50 5 C50.89883649 7.59800683 51.60493792 10.08709438 52.25 12.75 C54.33642421 20.81423411 56.80976078 28.68379774 59.50097656 36.56542969 C60.93541586 40.77652188 62.30808674 44.98800232 63.55859375 49.2578125 C64.64024827 52.9123207 65.89459079 56.38448409 67.4375 59.875 C74 75.26704545 74 75.26704545 74 82 C74.66 82 75.32 82 76 82 C78.68219822 87.36439644 79.3152595 91.01006953 79 97 C79.99 97 80.98 97 82 97 C82.34611328 98.52367187 82.34611328 98.52367187 82.69921875 100.078125 C84.49547591 107.74589775 86.57804337 114.89750744 89.76953125 122.125 C94.15994647 132.38324001 96.63669429 143.13885033 99 154 C99.66 154 100.32 154 101 154 C101.17015625 154.67804688 101.3403125 155.35609375 101.515625 156.0546875 C102.79403631 160.96433095 104.19060318 165.6435989 106.1875 170.3125 C107.74674424 174.0297857 108.43027637 176.91237444 108 181 C108.66 181 109.32 181 110 181 C113.5503719 190.15527373 116.12536567 199.36402916 118 209 C118.66 209 119.32 209 120 209 C120.51172094 210.3706811 121.00877492 211.74684075 121.5 213.125 C121.91765625 214.27355469 121.91765625 214.27355469 122.34375 215.4453125 C123 218 123 218 123 224 C107.82 224 92.64 224 77 224 C70.14285714 208 70.14285714 208 69 200 C68.34 200 67.68 200 67 200 C66.855625 198.7625 66.71125 197.525 66.5625 196.25 C66.21311498 193.43495501 65.79620634 190.7298503 65 188 C64.34 188 63.68 188 63 188 C62.83918945 187.35562988 62.67837891 186.71125977 62.51269531 186.04736328 C61.76563793 183.07138933 61.00788332 180.09823457 60.25 177.125 C59.99734375 176.11179687 59.7446875 175.09859375 59.484375 174.0546875 C58.01370122 168.31905977 56.25602949 162.92064202 53.97265625 157.46044922 C51.96023608 152.36979397 50.59652244 147.06047962 49.11328125 141.796875 C48.86707031 140.94609375 48.62085938 140.0953125 48.3671875 139.21875 C48.15175293 138.45498047 47.93631836 137.69121094 47.71435547 136.90429688 C47.07412376 134.79832335 47.07412376 134.79832335 45 133 C44.38919584 131.20961532 43.85606821 129.39201699 43.375 127.5625 C43.11460937 126.59441406 42.85421875 125.62632812 42.5859375 124.62890625 C42 122 42 122 42 119 C41.34 119 40.68 119 40 119 C39.51080078 117.60587891 39.51080078 117.60587891 39.01171875 116.18359375 C38.57472656 114.94738281 38.13773438 113.71117187 37.6875 112.4375 C37.4603833 111.79433838 37.2332666 111.15117676 36.99926758 110.48852539 C35.8423665 107.24402038 34.63808072 104.06182771 33.1875 100.9375 C32.01003962 98.02483486 31.71785837 96.10355793 32 93 C31.34 93 30.68 93 30 93 C29.7525 92.0925 29.505 91.185 29.25 90.25 C27.2640811 80.96144257 27.2640811 80.96144257 23 73 C22.85884839 70.32941149 22.95752893 67.67567762 23 65 C22.34 65 21.68 65 21 65 C16.25740961 52.89091182 12.03503215 40.66228467 9 28 C8.34 28 7.68 28 7 28 C6.01302841 24.64808052 5.03685244 21.29310737 4.0625 17.9375 C3.78470703 16.99455078 3.50691406 16.05160156 3.22070312 15.08007812 C2.81948242 13.69272461 2.81948242 13.69272461 2.41015625 12.27734375 C2.16402588 11.43421631 1.91789551 10.59108887 1.66430664 9.72241211 C0.88487155 6.52818916 0.46498558 3.25489903 0 0 Z " fill="#808080" transform="translate(204,228)"/>
<path d="M0 0 C15.84 0 31.68 0 48 0 C48 5.57978723 48 5.57978723 46.75 8.9375 C45.33452604 12.91810517 44.17490358 16.92411811 43.0625 21 C41.47990959 26.61759192 39.47800342 31.73424272 37 37 C34.41402366 42.94277255 33.00035215 49.00910365 31.6484375 55.33984375 C31 58 31 58 30 59 C29.46512518 61.50806849 29.03594544 64.02807921 28.59765625 66.5546875 C28 69 28 69 26 72 C25.34 72 24.68 72 24 72 C23.7525 73.2375 23.505 74.475 23.25 75.75 C22.41715862 79.55132603 21.29527617 83.14416191 20 86.8125 C18.23240499 91.93265527 17.28479264 96.89578616 16.49609375 102.2421875 C15.8027917 106.09629179 14.49651856 109.38341349 13 113 C12.32264783 114.99640639 11.65161065 116.99504414 11 119 C10.34 119 9.68 119 9 119 C8.814375 119.9590625 8.814375 119.9590625 8.625 120.9375 C7.8020178 124.97011276 6.90114025 128.98423907 6 133 C5.34 133 4.68 133 4 133 C3.34 135.97 2.68 138.94 2 142 C1.34 142 0.68 142 0 142 C-0.08507812 143.25296875 -0.17015625 144.5059375 -0.2578125 145.796875 C-0.90603698 151.61497405 -2.84094027 156.79060909 -4.875 162.25 C-7.59423654 169.7279005 -9.9456677 176.90218101 -11.234375 184.76953125 C-12 187 -12 187 -14.078125 188.32421875 C-14.71234375 188.54722656 -15.3465625 188.77023437 -16 189 C-19.66231207 183.67300062 -21 178.40067258 -21 172 C-21.66 172 -22.32 172 -23 172 C-23.45182292 170.64453125 -23.90364583 169.2890625 -24.35546875 167.93359375 C-24.64599121 167.0624292 -24.93651367 166.19126465 -25.23583984 165.29370117 C-25.87385942 163.37882404 -26.51089297 161.4636181 -27.14697266 159.5480957 C-28.58997737 155.20632128 -30.03790359 150.86757896 -31.54296875 146.546875 C-33.68327285 140.36900646 -35.59836283 134.56007385 -36 128 C-36.66 128 -37.32 128 -38 128 C-39.96670512 122.09988463 -41.49563544 116.48610938 -38.94921875 110.55078125 C-38.06194256 108.84166222 -37.15804932 107.14107382 -36.23828125 105.44921875 C-34.49975531 102.01055704 -33.80287364 98.76733018 -33 95 C-32.36198301 92.65762994 -31.67979271 90.33071785 -31 88 C-30.34 88 -29.68 88 -29 88 C-28.99742187 87.35675781 -28.99484375 86.71351563 -28.9921875 86.05078125 C-28.75187274 80.43542636 -27.83547508 76.16436276 -25.3125 71.125 C-21.61114751 63.70450006 -19.55361923 55.99843963 -17.39453125 48.015625 C-16.10913689 43.278251 -14.60207182 38.6385636 -13 34 C-11.87353568 30.6831884 -10.78787606 27.41412958 -10 24 C-9.34 24 -8.68 24 -8 24 C-7.814375 22.515 -7.814375 22.515 -7.625 21 C-7.04805273 16.91119976 -6.05036346 12.99138113 -5 9 C-4.34 9 -3.68 9 -3 9 C-2.814375 8.1646875 -2.814375 8.1646875 -2.625 7.3125 C-2 5 -2 5 0 0 Z " fill="#818180" transform="translate(446,229)"/>
<path d="M0 0 C2.17666626 -0.36076355 2.17666626 -0.36076355 4.90869141 -0.34057617 C6.44005234 -0.34023628 6.44005234 -0.34023628 8.00234985 -0.33988953 C9.10759003 -0.32440567 10.2128302 -0.30892181 11.3515625 -0.29296875 C12.4807309 -0.28872391 13.60989929 -0.28447906 14.77328491 -0.28010559 C18.39076273 -0.26327132 22.00768969 -0.22560975 25.625 -0.1875 C28.07290864 -0.17245934 30.52082598 -0.15876986 32.96875 -0.14648438 C38.9793556 -0.11335227 44.98963846 -0.06310579 51 0 C50.30455733 3.90608318 49.29334649 6.47367792 47.125 9.8125 C43.13599605 16.2445303 40.96720878 22.7364599 39 30 C38.34 30 37.68 30 37 30 C35.13448574 33.58752742 33.57464072 37.27812193 32 41 C31.34 41 30.68 41 30 41 C29.88785156 41.52078125 29.77570313 42.0415625 29.66015625 42.578125 C28.80140373 45.72857803 27.62376488 48.70829519 26.4375 51.75 C25.75494141 53.50570312 25.75494141 53.50570312 25.05859375 55.296875 C24.53458984 56.63492188 24.53458984 56.63492188 24 58 C23.34 58 22.68 58 22 58 C21.73445313 58.69480469 21.46890625 59.38960938 21.1953125 60.10546875 C19.89396924 63.25676076 18.41296617 66.27000171 16.875 69.3125 C16.33617187 70.38113281 15.79734375 71.44976562 15.2421875 72.55078125 C14.83226562 73.35902344 14.42234375 74.16726563 14 75 C13.34 75 12.68 75 12 75 C12 77.64 12 80.28 12 83 C11.34 83 10.68 83 10 83 C9.7525 83.78375 9.505 84.5675 9.25 85.375 C7.92493637 89.21768452 6.4344541 92.96668067 4.90234375 96.73046875 C4.21239047 98.46580578 3.59054468 100.22836597 3 102 C2.34 102 1.68 102 1 102 C1 102.99 1 103.98 1 105 C-0.8828125 104.70703125 -0.8828125 104.70703125 -3 104 C-4.50142473 101.34748297 -5.75525384 98.77180589 -7 96 C-8.00952547 93.89038478 -9.03088065 91.78639961 -10.0625 89.6875 C-10.54847656 88.68074219 -11.03445313 87.67398438 -11.53515625 86.63671875 C-12.85523223 84.26058199 -14.07806948 82.85659578 -16 81 C-16.33 80.01 -16.66 79.02 -17 78 C-18.64488294 76.31183067 -20.31337542 74.64646685 -22 73 C-24.76053567 69.85870079 -25 69.41910686 -25 65 C-25.66 65 -26.32 65 -27 65 C-28.85376666 62.27387255 -28.99513447 60.86376511 -28.875 57.5 C-28 54 -28 54 -26.19921875 52.26953125 C-23.27725173 49.25414432 -21.73944481 45.9476276 -19.9375 42.1875 C-19.59912109 41.50107422 -19.26074219 40.81464844 -18.91210938 40.10742188 C-17.35727726 36.92858717 -15.89004595 33.74162234 -14.50390625 30.484375 C-12.52452114 25.89837107 -10.25054089 21.48601064 -7.9609375 17.04882812 C-6.23114514 13.64536262 -4.6813209 10.27351456 -3.375 6.68359375 C-2 3 -2 3 0 0 Z " fill="#818282" transform="translate(1008,228)"/>
<path d="M0 0 C6.77586774 -0.46428488 13.35268156 0.3930377 20.0625 1.3125 C21.06531006 1.44640137 22.06812012 1.58030273 23.10131836 1.71826172 C30.35595111 2.71198349 37.54134912 3.92603088 44.72265625 5.3515625 C47.80751231 5.96191543 50.8957019 6.49915434 54 7 C54.18170582 13.87637221 53.71017885 20.39991501 52.625 27.1875 C52.43550781 28.46270508 52.43550781 28.46270508 52.2421875 29.76367188 C51.32123571 35.72683468 49.90897256 41.27308231 48 47 C44.06221489 46.8612922 40.12485777 46.71281508 36.1875 46.5625 C35.06794922 46.52318359 33.94839844 46.48386719 32.79492188 46.44335938 C31.18520508 46.38051758 31.18520508 46.38051758 29.54296875 46.31640625 C28.55321045 46.27974854 27.56345215 46.24309082 26.54370117 46.20532227 C24 46 24 46 21 45 C18.31276495 44.65871828 15.63056766 44.34824743 12.9375 44.0625 C6.5459207 43.35300282 0.27316404 42.44883887 -6 41 C-6.28497838 33.08393394 -6.43455584 26.08001506 -3.7265625 18.55078125 C-2.53426924 14.36493447 -2.4789421 10.11613402 -2.30859375 5.78515625 C-2 3 -2 3 0 0 Z " fill="#818181" transform="translate(1080,402)"/>
<path d="M0 0 C6.71901646 -0.13587557 13.21116886 0.21477565 19.875 1.05859375 C21.21171753 1.22150658 21.21171753 1.22150658 22.57543945 1.38771057 C24.43785553 1.616025 26.29991702 1.84724955 28.16162109 2.08129883 C31.01963396 2.43996396 33.8788001 2.78802116 36.73828125 3.13476562 C38.55476391 3.35875622 40.37117308 3.58334379 42.1875 3.80859375 C43.04263184 3.91280136 43.89776367 4.01700897 44.77880859 4.12437439 C50.76861872 4.88430936 50.76861872 4.88430936 53 6 C53.39468622 15.25319922 52.77499991 24.13316669 51.5625 33.3125 C51.42803467 34.33287354 51.29356934 35.35324707 51.1550293 36.40454102 C50.14256423 43.71487153 50.14256423 43.71487153 49 46 C44.66589998 45.67614833 40.33293066 45.33909892 36 45 C34.9996875 44.9278125 33.999375 44.855625 32.96875 44.78125 C32.0509375 44.7090625 31.133125 44.636875 30.1875 44.5625 C28.97126953 44.47162109 28.97126953 44.47162109 27.73046875 44.37890625 C24.83424143 43.97699774 22.08122693 43.25447296 19.25463867 42.51928711 C14.17820996 41.35008691 8.96882397 40.81038339 3.80664062 40.14453125 C2.94361328 40.02464844 2.08058594 39.90476562 1.19140625 39.78125 C0.40967041 39.67876953 -0.37206543 39.57628906 -1.17749023 39.47070312 C-1.77891846 39.31537109 -2.38034668 39.16003906 -3 39 C-4.4783226 36.04335481 -4.06032783 33.25770263 -4 30 C-3.34 30 -2.68 30 -2 30 C-2.01160156 28.79601562 -2.02320313 27.59203125 -2.03515625 26.3515625 C-2.04453434 24.77604321 -2.05363452 23.20052225 -2.0625 21.625 C-2.07087891 20.8309375 -2.07925781 20.036875 -2.08789062 19.21875 C-2.11328125 13.2265625 -2.11328125 13.2265625 -1 11 C-0.7724985 9.12943209 -0.59037189 7.25314042 -0.4375 5.375 C-0.31181641 3.87066406 -0.31181641 3.87066406 -0.18359375 2.3359375 C-0.12300781 1.56507813 -0.06242187 0.79421875 0 0 Z " fill="#838383" transform="translate(1164,228)"/>
<path d="M0 0 C24.42 0 48.84 0 74 0 C75.65784589 1.65784589 75.12210963 3.65175861 75.12908131 5.86641508 C75.12616847 6.56776388 75.12325563 7.26911268 75.12025452 7.99171448 C75.12110894 8.73169188 75.12196337 9.47166928 75.12284368 10.23407024 C75.12450069 12.73232413 75.11897353 15.23051198 75.11352539 17.72875977 C75.11324354 19.51213581 75.11340121 21.29551197 75.1139679 23.07888794 C75.11425596 27.93612191 75.10835788 32.79333141 75.10139394 37.65055966 C75.09516179 42.72080948 75.09455671 47.79105981 75.09336853 52.86131287 C75.0902548 62.46963693 75.08204086 72.07794968 75.07201904 81.68626875 C75.06085919 92.62199528 75.05534778 103.55772234 75.05032361 114.49345315 C75.03985828 136.99564316 75.02151229 159.49781765 75 182 C96.45 182 117.9 182 140 182 C140 195.86 140 209.72 140 224 C93.8 224 47.6 224 0 224 C0 150.08 0 76.16 0 0 Z M2 2 C2 74.27 2 146.54 2 221 C46.88 221 91.76 221 138 221 C138 208.79 138 196.58 138 184 C116.88 184 95.76 184 74 184 C74 123.94 74 63.88 74 2 C50.24 2 26.48 2 2 2 Z " fill="#AFB0AF" transform="translate(603,228)"/>
<path d="M0 0 C0.72030396 -0.00175232 1.44060791 -0.00350464 2.18273926 -0.00531006 C4.57497534 -0.00972835 6.9671381 -0.00679068 9.359375 -0.00341797 C11.01464858 -0.00409101 12.66992207 -0.00506105 14.32519531 -0.00631714 C17.79883767 -0.00779408 21.27245437 -0.00563968 24.74609375 -0.00097656 C29.20869998 0.00472073 33.67124608 0.0014417 38.1338501 -0.00454903 C41.5532273 -0.00815474 44.97259015 -0.00701601 48.39196777 -0.00442123 C50.03788256 -0.00375199 51.68379863 -0.00458029 53.32971191 -0.00690079 C55.62609331 -0.00942749 57.92237599 -0.0055865 60.21875 0 C61.52811523 0.00079559 62.83748047 0.00159119 64.18652344 0.00241089 C67.109375 0.12939453 67.109375 0.12939453 68.109375 1.12939453 C68.20699724 3.46966577 68.23935104 5.78037834 68.22962952 8.12110901 C68.23048394 8.86108641 68.23133837 9.60106381 68.23221868 10.36346477 C68.23387569 12.86171866 68.22834853 15.35990652 68.22290039 17.8581543 C68.22261854 19.64153034 68.22277621 21.4249065 68.2233429 23.20828247 C68.22363096 28.06551644 68.21773288 32.92272594 68.21076894 37.7799542 C68.20453679 42.85020402 68.20393171 47.92045434 68.20274353 52.9907074 C68.1996298 62.59903146 68.19141586 72.20734421 68.18139404 81.81566328 C68.17023419 92.75138981 68.16472278 103.68711687 68.15969861 114.62284768 C68.14923328 137.12503769 68.13088729 159.62721218 68.109375 182.12939453 C89.559375 182.12939453 111.009375 182.12939453 133.109375 182.12939453 C133.1403125 192.24595703 133.1403125 192.24595703 133.171875 202.56689453 C133.180979 204.69827881 133.19008301 206.82966309 133.19946289 209.02563477 C133.202382 210.70475196 133.20493057 212.38386986 133.20703125 214.06298828 C133.21214722 214.94313599 133.21726318 215.82328369 133.22253418 216.73010254 C133.22284396 218.86353332 133.17181567 220.99687767 133.109375 223.12939453 C131.38273429 224.85603525 129.07259005 224.25551056 126.71887207 224.25637817 C124.96462669 224.26060791 124.96462669 224.26060791 123.17494202 224.2649231 C121.88035568 224.26289886 120.58576935 224.26087463 119.25195312 224.25878906 C117.88398695 224.26014309 116.51602114 224.26192302 115.14805603 224.26409912 C111.42295126 224.26867334 107.69787406 224.26688395 103.97276878 224.26372004 C100.08279722 224.26119637 96.19282809 224.26353399 92.30285645 224.2651062 C85.76912002 224.26692788 79.23539487 224.26452164 72.70166016 224.25976562 C65.13709817 224.25432301 57.57256314 224.25608566 50.0080018 224.26159203 C43.52479016 224.26612321 37.04158665 224.26677368 30.55837393 224.26415336 C26.68116915 224.26259061 22.80397705 224.26239676 18.92677307 224.26568985 C15.28249913 224.26856864 11.63826009 224.26659274 7.99398994 224.26079559 C6.01059645 224.25883242 4.02720002 224.26182184 2.04380798 224.2649231 C0.87431107 224.26210327 -0.29518585 224.25928345 -1.50012207 224.25637817 C-2.52293526 224.25600115 -3.54574844 224.25562412 -4.59955597 224.25523567 C-6.890625 224.12939453 -6.890625 224.12939453 -7.890625 223.12939453 C-7.99077836 220.2743566 -8.02501385 217.4434345 -8.01760864 214.58789062 C-8.01916863 213.68119314 -8.02072862 212.77449566 -8.02233589 211.84032249 C-8.02634999 208.77780953 -8.02315466 205.71534544 -8.02001953 202.65283203 C-8.02137339 200.46714244 -8.02315323 198.28145308 -8.02532959 196.09576416 C-8.02990575 190.14139501 -8.02811361 184.18704311 -8.0249505 178.23267365 C-8.02242784 172.0164434 -8.02476418 165.80021468 -8.02633667 159.58398438 C-8.02827552 148.47295163 -8.02515775 137.3619257 -8.02007733 126.25089431 C-8.01560929 116.16677069 -8.01638522 106.08265857 -8.02099609 95.99853516 C-8.02634181 84.30173114 -8.02834272 72.60493384 -8.02538383 60.90812874 C-8.02382062 54.71143441 -8.02362848 48.51474802 -8.02692032 42.3180542 C-8.0297979 36.49380449 -8.02782544 30.66957662 -8.02202606 24.84532928 C-8.02069785 22.70104763 -8.0210936 20.55676416 -8.02328873 18.41248322 C-8.02599785 15.49859635 -8.02262203 12.58478069 -8.01760864 9.67089844 C-8.01983936 8.81070288 -8.02207009 7.95050732 -8.02436841 7.06424522 C-7.99928796 -0.38644715 -7.2926041 0.00443111 0 0 Z M-5.890625 2.12939453 C-5.890625 74.72939453 -5.890625 147.32939453 -5.890625 222.12939453 C39.319375 222.12939453 84.529375 222.12939453 131.109375 222.12939453 C131.109375 209.25939453 131.109375 196.38939453 131.109375 183.12939453 C110.319375 182.79939453 89.529375 182.46939453 68.109375 182.12939453 C67.779375 122.72939453 67.449375 63.32939453 67.109375 2.12939453 C43.019375 2.12939453 18.929375 2.12939453 -5.890625 2.12939453 Z " fill="#B8B9B9" transform="translate(761.890625,227.87060546875)"/>
<path d="M0 0 C1.29461655 0.00222061 2.58923309 0.00444122 3.92308044 0.00672913 C4.99131546 0.00651009 4.99131546 0.00651009 6.08113098 0.00628662 C8.4457143 0.00698581 10.81021979 0.01477846 13.17478943 0.02259827 C14.81003781 0.02446243 16.44528675 0.02588634 18.08053589 0.02688599 C22.39273103 0.03071134 26.7048927 0.04054177 31.01707458 0.05158997 C35.41404263 0.06180371 39.81101607 0.06638353 44.20799255 0.07142639 C52.84147149 0.08216402 61.47492317 0.09924065 70.10838318 0.12025452 C70.10838318 0.45025452 70.10838318 0.78025452 70.10838318 1.12025452 C34.96338318 1.61525452 34.96338318 1.61525452 -0.89161682 2.12025452 C-1.22161682 75.05025452 -1.55161682 147.98025452 -1.89161682 223.12025452 C21.86838318 222.79025452 45.62838318 222.46025452 70.10838318 222.12025452 C70.43838318 149.52025452 70.76838318 76.92025452 71.10838318 2.12025452 C71.43838318 2.12025452 71.76838318 2.12025452 72.10838318 2.12025452 C72.10838318 75.38025452 72.10838318 148.64025452 72.10838318 224.12025452 C47.35838318 224.12025452 22.60838318 224.12025452 -2.89161682 224.12025452 C-4.74148306 222.27038828 -4.01707277 219.64737247 -4.02536023 217.18540382 C-4.0231295 216.32520826 -4.02089878 215.4650127 -4.01860046 214.57875061 C-4.02016045 213.67205313 -4.02172045 212.76535564 -4.02332771 211.83118248 C-4.02734182 208.76866951 -4.02414648 205.70620542 -4.02101135 202.64369202 C-4.02236521 200.45800243 -4.02414506 198.27231307 -4.02632141 196.08662415 C-4.03089758 190.132255 -4.02910543 184.17790309 -4.02594233 178.22353363 C-4.02341966 172.00730338 -4.025756 165.79107466 -4.02732849 159.57484436 C-4.02926734 148.46381162 -4.02614957 137.35278569 -4.02106915 126.24175429 C-4.01660111 116.15763067 -4.01737704 106.07351856 -4.02198792 95.98939514 C-4.02733363 84.29259112 -4.02933454 72.59579382 -4.02637565 60.89898872 C-4.02481244 54.7022944 -4.0246203 48.50560801 -4.02791214 42.30891418 C-4.03078972 36.48466447 -4.02881726 30.66043661 -4.02301788 24.83618927 C-4.02168967 22.69190762 -4.02208542 20.54762414 -4.02428055 18.4033432 C-4.02698967 15.48945634 -4.02361385 12.57564068 -4.01860046 9.66175842 C-4.02083119 8.80156286 -4.02306191 7.9413673 -4.02536023 7.05510521 C-4.00217167 0.16643949 -4.00217167 0.16643949 0 0 Z " fill="#C6C8C7" transform="translate(510.89161682128906,227.87974548339844)"/>
<path d="M0 0 C1.51400391 0.01740234 1.51400391 0.01740234 3.05859375 0.03515625 C4.07050781 0.04417969 5.08242187 0.05320313 6.125 0.0625 C7.29869141 0.07990234 7.29869141 0.07990234 8.49609375 0.09765625 C9.17366257 1.65545957 9.83768832 3.21915721 10.49609375 4.78515625 C10.86734375 5.65527344 11.23859375 6.52539062 11.62109375 7.421875 C12.51479863 10.15485645 12.66059051 12.24466559 12.49609375 15.09765625 C14.83526465 14.21456656 14.83526465 14.21456656 15.56640625 11.15625 C15.91445312 9.96128906 16.2625 8.76632813 16.62109375 7.53515625 C16.97429687 6.33761719 17.3275 5.14007813 17.69140625 3.90625 C17.95695312 2.97941406 18.2225 2.05257812 18.49609375 1.09765625 C21.79609375 1.09765625 25.09609375 1.09765625 28.49609375 1.09765625 C28.49609375 10.33765625 28.49609375 19.57765625 28.49609375 29.09765625 C26.51609375 29.09765625 24.53609375 29.09765625 22.49609375 29.09765625 C22.49609375 23.48765625 22.49609375 17.87765625 22.49609375 12.09765625 C21.50609375 12.59265625 21.50609375 12.59265625 20.49609375 13.09765625 C19.91553032 14.98173656 19.91553032 14.98173656 19.55859375 17.22265625 C18.69940487 21.51860063 17.35037317 25.13624113 15.49609375 29.09765625 C13.84609375 29.09765625 12.19609375 29.09765625 10.49609375 29.09765625 C10.16609375 27.77765625 9.83609375 26.45765625 9.49609375 25.09765625 C8.83609375 25.09765625 8.17609375 25.09765625 7.49609375 25.09765625 C6.83609375 24.10765625 6.17609375 23.11765625 5.49609375 22.09765625 C4.83609375 24.73765625 4.17609375 27.37765625 3.49609375 30.09765625 C1.18609375 30.09765625 -1.12390625 30.09765625 -3.50390625 30.09765625 C-3.52856371 25.98593065 -3.54674584 21.87423347 -3.55883789 17.76245117 C-3.56387705 16.36270397 -3.57070841 14.96296205 -3.5793457 13.56323242 C-3.59142945 11.55519848 -3.59660432 9.54712668 -3.6015625 7.5390625 C-3.60679932 6.32935791 -3.61203613 5.11965332 -3.61743164 3.87329102 C-3.46453795 0.13512238 -3.46453795 0.13512238 0 0 Z " fill="#919293" transform="translate(1265.50390625,227.90234375)"/>
<path d="M0 0 C5.57142857 5.14285714 5.57142857 5.14285714 6 9 C6.66 9 7.32 9 8 9 C9.66478492 11.92051026 10.24876665 14.00073859 10.24050903 17.35333252 C10.24325836 18.21707489 10.24600769 19.08081726 10.24884033 19.97073364 C10.24164978 20.91012787 10.23445923 21.84952209 10.22705078 22.81738281 C10.22734283 23.81283112 10.22763489 24.80827942 10.22793579 25.83389282 C10.22654261 29.12372559 10.21098178 32.4133318 10.1953125 35.703125 C10.19158233 37.98427202 10.18873538 40.26542063 10.18673706 42.54656982 C10.17910092 48.55041935 10.1594525 54.55417211 10.1373291 60.5579834 C10.11327326 67.76163737 10.10408961 74.9653237 10.09242249 82.16900635 C10.07302819 93.1127382 10.03470531 104.05625773 10 115 C-16.07 115 -42.14 115 -69 115 C-69.33 84.97 -69.66 54.94 -70 24 C-66.66719165 27.33280835 -66.65224747 28.32966398 -66.6267395 32.83093262 C-66.63752533 33.6243103 -66.64831116 34.41768799 -66.65942383 35.23510742 C-66.65876671 36.49397514 -66.65876671 36.49397514 -66.65809631 37.77827454 C-66.66018753 40.55424201 -66.68353414 43.32960669 -66.70703125 46.10546875 C-66.71262602 48.02931895 -66.71689668 49.95317342 -66.71989441 51.87702942 C-66.73135253 56.9422484 -66.76082807 62.00720958 -66.79400635 67.07232666 C-66.83007985 73.14874697 -66.84386377 79.22525345 -66.86136627 85.30175018 C-66.8904648 94.53467945 -66.94794532 103.76704301 -67 113 C-42.25 113 -17.5 113 8 113 C7.85017236 99.64937038 7.85017236 99.64937038 7.69335938 86.29882812 C7.62764984 80.83571552 7.56267281 75.37260266 7.50268555 69.90942383 C7.286378 46.06445893 7.286378 46.06445893 6.58984375 22.23046875 C6.56112686 21.41693436 6.53240997 20.60339996 6.50282288 19.76521301 C6.31624142 15.98655155 5.82955867 13.29691573 4 10 C4 8.68 4 7.36 4 6 C3.34 6 2.68 6 2 6 C1.01 3.03 1.01 3.03 0 0 Z " fill="#BDBEBE" transform="translate(992,337)"/>
<path d="M0 0 C1.07507812 -0.00128906 2.15015625 -0.00257813 3.2578125 -0.00390625 C4.38960937 -0.00003906 5.52140625 0.00382813 6.6875 0.0078125 C7.81929687 0.00394531 8.95109375 0.00007812 10.1171875 -0.00390625 C11.19226562 -0.00261719 12.26734375 -0.00132812 13.375 0 C14.86580078 0.00169189 14.86580078 0.00169189 16.38671875 0.00341797 C18.6875 0.1328125 18.6875 0.1328125 19.6875 1.1328125 C19.72842937 3.46578683 19.72991723 5.79986475 19.6875 8.1328125 C17.0475 8.1328125 14.4075 8.1328125 11.6875 8.1328125 C11.6875 15.7228125 11.6875 23.3128125 11.6875 31.1328125 C9.3775 31.1328125 7.0675 31.1328125 4.6875 31.1328125 C3.6875 30.1328125 3.6875 30.1328125 3.57397461 27.90795898 C3.57921143 26.94962158 3.58444824 25.99128418 3.58984375 25.00390625 C3.59306641 23.96943359 3.59628906 22.93496094 3.59960938 21.86914062 C3.60798828 20.78052734 3.61636719 19.69191406 3.625 18.5703125 C3.62951172 17.47783203 3.63402344 16.38535156 3.63867188 15.25976562 C3.65050174 12.55072755 3.66698457 9.84179651 3.6875 7.1328125 C2.73037109 7.15021484 2.73037109 7.15021484 1.75390625 7.16796875 C0.51447266 7.18150391 0.51447266 7.18150391 -0.75 7.1953125 C-1.98556641 7.21271484 -1.98556641 7.21271484 -3.24609375 7.23046875 C-5.3125 7.1328125 -5.3125 7.1328125 -6.3125 6.1328125 C-6.4375 3.6328125 -6.4375 3.6328125 -6.3125 1.1328125 C-4.59682208 -0.58286542 -2.33877265 0.00265425 0 0 Z " fill="#8C8E8E" transform="translate(1239.3125,226.8671875)"/>
<path d="M0 0 C9.5964878 -0.11576329 19.19273592 -0.2046484 28.78976917 -0.25906086 C33.24592024 -0.28517406 37.70159424 -0.32060273 42.1574707 -0.37719727 C46.45632818 -0.43145685 50.75472634 -0.46140755 55.05389977 -0.47438622 C56.69544395 -0.48363712 58.3369625 -0.5017021 59.97831154 -0.52865028 C62.27491526 -0.5648628 64.56961259 -0.56994902 66.86645508 -0.56762695 C68.17439529 -0.57873001 69.48233551 -0.58983307 70.82991028 -0.60127258 C74 0 74 0 75.90287781 2.29719543 C77.2126996 5.52399401 77.66120191 8.54425944 78 12 C74.96938234 9.97958823 74.27760233 9.24314437 73 6 C73 5.01 73 4.02 73 3 C49.9 3 26.8 3 3 3 C4.98 9.27 6.96 15.54 9 22 C11 30 11 30 10 34 C7.48590969 27.63876684 5.51621228 21.83981276 5 15 C4.34 15 3.68 15 3 15 C2.48827906 13.6293189 1.99122508 12.25315925 1.5 10.875 C1.08234375 9.72644531 1.08234375 9.72644531 0.65625 8.5546875 C-0.09602189 5.62620051 -0.04350515 3.01273146 0 0 Z " fill="#989899" transform="translate(267,228)"/>
<path d="M0 0 C27.06 0 54.12 0 82 0 C82 0.99 82 1.98 82 3 C55.93 3 29.86 3 3 3 C3.33 4.98 3.66 6.96 4 9 C0.38296899 6.16928008 0.86880418 5.21282508 0 0 Z " fill="#99989A" transform="translate(844,228)"/>
<path d="M0 0 C0.33 0.99 0.66 1.98 1 3 C1.66 3 2.32 3 3 3 C3 3.99 3 4.98 3 6 C3.99 6.33 4.98 6.66 6 7 C6.7734375 8.828125 6.7734375 8.828125 7.375 11.25 C9.50391555 19.01886984 11.99317817 26.98668832 16.25 33.875 C18 37 18 37 19 44 C54.145 43.505 54.145 43.505 90 43 C90 40.69 90 38.38 90 36 C93.29679683 39.29679683 94 41.28312744 94 46 C84.42074639 46.09266788 74.841647 46.16374845 65.262043 46.20724869 C60.81385723 46.22812638 56.36597806 46.25644702 51.91796875 46.30175781 C47.62560766 46.34520957 43.33354152 46.36913574 39.04097748 46.37950897 C37.40307725 46.3869016 35.76519323 46.40133775 34.12741852 46.42292023 C31.83361391 46.45194647 29.54102894 46.45595651 27.24707031 46.45410156 C25.28849091 46.46742523 25.28849091 46.46742523 23.29034424 46.48101807 C19.4446497 45.91881289 18.31968301 45.04911339 16 42 C14.83984375 39.484375 14.83984375 39.484375 13.9375 36.75 C13.43863281 35.28820312 13.43863281 35.28820312 12.9296875 33.796875 C12.62289063 32.87390625 12.31609375 31.9509375 12 31 C9.70878324 24.48812078 6.88567883 18.26791928 4 12 C2.19271065 8.05210974 0.65551845 4.32642177 0 0 Z " fill="#BBBCBC" transform="translate(1137,406)"/>
<path d="M0 0 C9.48346015 -0.04627819 18.96688161 -0.08184612 28.45042992 -0.10362434 C32.85371251 -0.11407518 37.25691802 -0.12825796 41.66015625 -0.15087891 C45.90709824 -0.17256112 50.15396596 -0.18455883 54.40095901 -0.18975449 C56.02373042 -0.19345858 57.64649762 -0.20069146 59.26923752 -0.21146011 C61.53684117 -0.2259138 63.80413528 -0.22798054 66.07177734 -0.22705078 C67.36417328 -0.231492 68.65656921 -0.23593323 69.98812866 -0.24050903 C73 0 73 0 75 2 C75.39764263 3.98821313 75.73775349 5.98944339 76 8 C75.34 8 74.68 8 74 8 C73.505 5.03 73.505 5.03 73 2 C49.9 2 26.8 2 3 2 C3 4.31 3 6.62 3 9 C0.87491756 5.81237635 0.4979837 3.73487777 0 0 Z " fill="#B4B4B6" transform="translate(1065,228)"/>
<path d="M0 0 C2.77842595 2.77842595 3.94471208 4.78366581 4.125 8.75 C4.08375 9.4925 4.0425 10.235 4 11 C4.66 11 5.32 11 6 11 C6.33 13.31 6.66 15.62 7 18 C7.66 18 8.32 18 9 18 C9.32613281 19.12277344 9.65226562 20.24554688 9.98828125 21.40234375 C10.4292764 22.91418248 10.87071095 24.42589308 11.3125 25.9375 C11.5396167 26.71496582 11.7667334 27.49243164 12.00073242 28.29345703 C13.19377389 32.35056143 14.42908927 36.3777411 15.8125 40.375 C17 44 17 44 17 47 C40.76 47 64.52 47 89 47 C88.505 43.04 88.505 43.04 88 39 C88.33 39.66 88.66 40.32 89 41 C89.66 41 90.32 41 91 41 C91 43.31 91 45.62 91 48 C66.25 48 41.5 48 16 48 C13.53000216 41.8250054 11.55084034 36.82450338 10.0625 30.5625 C8.59458991 24.77858333 6.69158276 19.66263896 3.953125 14.3671875 C2.8963057 11.74246416 2.82043914 9.80314456 3 7 C2.34 7 1.68 7 1 7 C0.67 4.69 0.34 2.38 0 0 Z " fill="#C5C7C7" transform="translate(327,404)"/>
<path d="M0 0 C2 3 2 3 2 5 C2.66 5 3.32 5 4 5 C4.43919277 6.72873749 4.87621615 8.45802609 5.3125 10.1875 C5.55613281 11.15042969 5.79976563 12.11335938 6.05078125 13.10546875 C7.42026739 18.72430695 8.69956465 24.36478014 10 30 C24.52 30 39.04 30 54 30 C53.34 27.36 52.68 24.72 52 22 C51.875 19 51.875 19 52 17 C54.81801446 22.43474217 56 25.66187142 56 32 C40.82 32 25.64 32 10 32 C3.14285714 16 3.14285714 16 2 8 C1.34 8 0.68 8 0 8 C0 5.36 0 2.72 0 0 Z " fill="#B8BABA" transform="translate(271,420)"/>
<path d="M0 0 C2.81468599 3.28245615 3.96291853 6.43833482 5.1875 10.5625 C5.70376953 12.26599609 5.70376953 12.26599609 6.23046875 14.00390625 C7 17 7 17 7 20 C7.66 20 8.32 20 9 20 C9.19335938 20.67546875 9.38671875 21.3509375 9.5859375 22.046875 C9.97652344 23.38492187 9.97652344 23.38492187 10.375 24.75 C10.63023437 25.63171875 10.88546875 26.5134375 11.1484375 27.421875 C11.91101137 29.97240329 11.91101137 29.97240329 13.1015625 32.078125 C14 34 14 34 14 38 C14.66 38 15.32 38 16 38 C16.15855469 38.6084375 16.31710938 39.216875 16.48046875 39.84375 C17.66652654 44.29965772 18.89642475 48.72857497 20.3125 53.1171875 C20.5391333 53.82166016 20.7657666 54.52613281 20.99926758 55.25195312 C21.4511566 56.64593217 21.90914133 58.0379528 22.3737793 59.42773438 C23.5499642 63.06116896 24.27319345 66.17529175 24 70 C24.66 70 25.32 70 26 70 C26.70045456 71.91197039 27.384919 73.82980435 28.0625 75.75 C28.44535156 76.81734375 28.82820313 77.8846875 29.22265625 78.984375 C29.98010011 81.92280042 30.07151741 83.22348948 29 86 C28.51080078 84.60587891 28.51080078 84.60587891 28.01171875 83.18359375 C27.57472656 81.94738281 27.13773438 80.71117187 26.6875 79.4375 C26.4603833 78.79433838 26.2332666 78.15117676 25.99926758 77.48852539 C24.8423665 74.24402038 23.63808072 71.06182771 22.1875 67.9375 C21.01003962 65.02483486 20.71785837 63.10355793 21 60 C20.34 60 19.68 60 19 60 C18.7525 59.0925 18.505 58.185 18.25 57.25 C16.2640811 47.96144257 16.2640811 47.96144257 12 40 C11.85884839 37.32941149 11.95752893 34.67567762 12 32 C11.34 32 10.68 32 10 32 C0 5.73333333 0 5.73333333 0 0 Z " fill="#C0C0C0" transform="translate(215,261)"/>
<path d="M0 0 C2.78633115 4.17949673 4 6.93375326 4 12 C4.66 12 5.32 12 6 12 C8.68219822 17.36439644 9.3152595 21.01006953 9 27 C9.99 27 10.98 27 12 27 C12.23074219 28.01578125 12.46148437 29.0315625 12.69921875 30.078125 C14.4947231 37.74268418 16.5810373 44.88926124 19.76171875 52.1171875 C21.07246573 55.16870571 22.22193965 58.23819391 23.3125 61.375 C23.80169922 62.77878906 23.80169922 62.77878906 24.30078125 64.2109375 C25.05940416 67.23695291 25.12374563 69.8926097 25 73 C22.05748991 69.61269187 20.80552558 65.96463957 19.5 61.75 C17.54764802 55.63796331 17.54764802 55.63796331 15.3125 49.625 C13.31266597 44.10164888 12 38.88460689 12 33 C11.34 33 10.68 33 10 33 C7.63915418 26.78724784 5.40098784 20.5348784 3.18359375 14.26953125 C2.45460081 12.25577848 1.68642117 10.25511651 0.85546875 8.28125 C-0.21200562 5.43465169 -0.14018014 3.01387303 0 0 Z " fill="#BCBDBC" transform="translate(274,298)"/>
<path d="M0 0 C15.18 0 30.36 0 46 0 C46.495 1.98 46.495 1.98 47 4 C47.99 4.33 48.98 4.66 50 5 C50.81542969 6.71826172 50.81542969 6.71826172 51.421875 8.9296875 C51.64230469 9.72503906 51.86273438 10.52039063 52.08984375 11.33984375 C52.30769531 12.17644531 52.52554688 13.01304687 52.75 13.875 C53.09998047 15.11830078 53.09998047 15.11830078 53.45703125 16.38671875 C55.13332171 22.60003488 55.13332171 22.60003488 54 26 C46 9.36758893 46 9.36758893 46 2 C31.15 2 16.3 2 1 2 C0.67 2.99 0.34 3.98 0 5 C0 3.35 0 1.7 0 0 Z " fill="#B9B9BA" transform="translate(204,228)"/>
<path d="M0 0 C5.12023646 4.40909251 8.3448513 9.61099 9.35822296 16.39982796 C9.48795271 18.97855827 9.49565991 21.5279816 9.45410156 24.10961914 C9.45468567 25.07653687 9.45526978 26.04345459 9.45587158 27.03967285 C9.45310616 30.20521148 9.42208713 33.36978408 9.390625 36.53515625 C9.38315713 38.74189235 9.37746678 40.94863512 9.37347412 43.15538025 C9.35826089 48.94064911 9.3190161 54.72551111 9.2746582 60.51062012 C9.23361243 66.42303973 9.21544325 72.3355256 9.1953125 78.24804688 C9.15251779 89.83220921 9.08431872 101.41607066 9 113 C8.67 113 8.34 113 8 113 C7.98969254 112.0694429 7.97938507 111.1388858 7.96876526 110.18013 C7.87004186 101.31278615 7.76723604 92.44549726 7.66066074 83.57824421 C7.60602431 79.02199066 7.55271509 74.46573047 7.50268555 69.90942383 C7.286378 46.06445893 7.286378 46.06445893 6.58984375 22.23046875 C6.56112686 21.41693436 6.53240997 20.60339996 6.50282288 19.76521301 C6.31624142 15.98655155 5.82955867 13.29691573 4 10 C4 8.68 4 7.36 4 6 C3.34 6 2.68 6 2 6 C1.34 4.02 0.68 2.04 0 0 Z " fill="#9A9A9A" transform="translate(992,337)"/>
<path d="M0 0 C2.34765625 -0.328125 2.34765625 -0.328125 5.0625 -0.25 C5.96097656 -0.23453125 6.85945313 -0.2190625 7.78515625 -0.203125 C10 0 10 0 11 1 C11.08783542 3.21855264 11.10694609 5.43988496 11.09765625 7.66015625 C11.0962413 8.32462265 11.09482635 8.98908905 11.09336853 9.6736908 C11.08775518 11.80333899 11.07520054 13.93288339 11.0625 16.0625 C11.05748671 17.50325369 11.05292351 18.94400903 11.04882812 20.38476562 C11.03778145 23.92321102 11.02050792 27.46159539 11 31 C8.03 31 5.06 31 2 31 C1.67 28.69 1.34 26.38 1 24 C0.01 26.64 -0.98 29.28 -2 32 C-4.31 32 -6.62 32 -9 32 C-9.33 30.02 -9.66 28.04 -10 26 C-9.34 27.32 -8.68 28.64 -8 30 C-6.35 30 -4.7 30 -3 30 C-2.74605469 28.85660156 -2.49210937 27.71320313 -2.23046875 26.53515625 C-1.88349609 25.04411159 -1.53580247 23.55323458 -1.1875 22.0625 C-1.02185547 21.30775391 -0.85621094 20.55300781 -0.68554688 19.77539062 C-0.22183377 17.82429587 0.3807544 15.90744213 1 14 C1.99 13.67 2.98 13.34 4 13 C4 18.61 4 24.22 4 30 C5.98 30 7.96 30 10 30 C10 20.76 10 11.52 10 2 C6.7 2 3.4 2 0 2 C-0.33 3.65 -0.66 5.3 -1 7 C-1.625 5.1875 -1.625 5.1875 -2 3 C-1.34 2.01 -0.68 1.02 0 0 Z " fill="#D0D2D2" transform="translate(1284,227)"/>
<path d="M0 0 C9.5964878 -0.11576329 19.19273592 -0.2046484 28.78976917 -0.25906086 C33.24592024 -0.28517406 37.70159424 -0.32060273 42.1574707 -0.37719727 C46.45632818 -0.43145685 50.75472634 -0.46140755 55.05389977 -0.47438622 C56.69544395 -0.48363712 58.3369625 -0.5017021 59.97831154 -0.52865028 C62.27491526 -0.5648628 64.56961259 -0.56994902 66.86645508 -0.56762695 C68.17439529 -0.57873001 69.48233551 -0.58983307 70.82991028 -0.60127258 C74 0 74 0 75.90287781 2.29719543 C77.2126996 5.52399401 77.66120191 8.54425944 78 12 C76 11 76 11 73 2 C49.24 1.67 25.48 1.34 1 1 C4.04177916 10.30754391 4.04177916 10.30754391 7.6875 19.1875 C9.85776274 24.24035098 10.72606937 28.52138737 11 34 C8.88565935 30.82848903 7.98044063 28.13567139 6.875 24.5 C6.52179688 23.3553125 6.16859375 22.210625 5.8046875 21.03125 C5 18 5 18 5 15 C4.34 15 3.68 15 3 15 C2.48827906 13.6293189 1.99122508 12.25315925 1.5 10.875 C1.08234375 9.72644531 1.08234375 9.72644531 0.65625 8.5546875 C-0.09602189 5.62620051 -0.04350515 3.01273146 0 0 Z " fill="#CBCCCC" transform="translate(267,228)"/>
<path d="M0 0 C1.51400391 0.01740234 1.51400391 0.01740234 3.05859375 0.03515625 C4.07050781 0.04417969 5.08242187 0.05320313 6.125 0.0625 C7.29869141 0.07990234 7.29869141 0.07990234 8.49609375 0.09765625 C8.16609375 0.75765625 7.83609375 1.41765625 7.49609375 2.09765625 C4.52609375 1.76765625 1.55609375 1.43765625 -1.50390625 1.09765625 C-1.50390625 10.33765625 -1.50390625 19.57765625 -1.50390625 29.09765625 C-0.18390625 29.09765625 1.13609375 29.09765625 2.49609375 29.09765625 C2.48449219 27.97746094 2.47289062 26.85726562 2.4609375 25.703125 C2.45155753 24.23047042 2.44245755 22.75781403 2.43359375 21.28515625 C2.42521484 20.54716797 2.41683594 19.80917969 2.40820312 19.04882812 C2.39349547 15.79843557 2.46077673 13.2036073 3.49609375 10.09765625 C4.15609375 10.09765625 4.81609375 10.09765625 5.49609375 10.09765625 C7.89825415 14.90197705 8.10731604 19.8286952 8.49609375 25.09765625 C7.50609375 24.10765625 6.51609375 23.11765625 5.49609375 22.09765625 C4.83609375 24.73765625 4.17609375 27.37765625 3.49609375 30.09765625 C1.18609375 30.09765625 -1.12390625 30.09765625 -3.50390625 30.09765625 C-3.52856371 25.98593065 -3.54674584 21.87423347 -3.55883789 17.76245117 C-3.56387705 16.36270397 -3.57070841 14.96296205 -3.5793457 13.56323242 C-3.59142945 11.55519848 -3.59660432 9.54712668 -3.6015625 7.5390625 C-3.60679932 6.32935791 -3.61203613 5.11965332 -3.61743164 3.87329102 C-3.46453795 0.13512238 -3.46453795 0.13512238 0 0 Z " fill="#B5B6B4" transform="translate(1265.50390625,227.90234375)"/>
<path d="M0 0 C2.64 0 5.28 0 8 0 C8 1.98 8 3.96 8 6 C6.68 6 5.36 6 4 6 C4 13.26 4 20.52 4 28 C2.68 28 1.36 28 0 28 C0 18.76 0 9.52 0 0 Z " fill="#8C8B8B" transform="translate(1264,229)"/>
<path d="M0 0 C1.27964684 3.79119252 0.92801328 7.23604299 0.625 11.1875 C0.53476563 12.43917969 0.44453125 13.69085938 0.3515625 14.98046875 C0 18 0 18 -1 19 C-2.53020433 25.35537418 -3.24613739 31.47735909 -3 38 C-2.43152344 38.04898438 -1.86304688 38.09796875 -1.27734375 38.1484375 C-0.50519531 38.22320312 0.26695313 38.29796875 1.0625 38.375 C2.19365234 38.47941406 2.19365234 38.47941406 3.34765625 38.5859375 C6 39 6 39 8.90625 39.9375 C14.90336235 41.72242254 21.23759648 42.01158198 27.4375 42.625 C28.74138672 42.7590625 30.04527344 42.893125 31.38867188 43.03125 C34.59191928 43.3597882 37.79564065 43.68252252 41 44 C41 44.33 41 44.66 41 45 C38.39576408 45.02697137 35.79180756 45.04682489 33.1875 45.0625 C32.44951172 45.07087891 31.71152344 45.07925781 30.95117188 45.08789062 C27.70077932 45.10259828 25.10595105 45.03531702 22 44 C19.31276495 43.65871828 16.63056766 43.34824743 13.9375 43.0625 C7.5459207 42.35300282 1.27316404 41.44883887 -5 40 C-5.28495167 32.08467574 -5.43069316 25.08489078 -2.73046875 17.5546875 C-1.52425742 13.33617301 -1.4271116 9.05215806 -1.2109375 4.6875 C-1 2 -1 2 0 0 Z " fill="#C0C2C2" transform="translate(1079,403)"/>
<path d="M0 0 C16.83 0 33.66 0 51 0 C50.10429689 4.47851553 49.74999027 5.77175056 47 9 C47.33 6.69 47.66 4.38 48 2 C31.83 2.33 15.66 2.66 -1 3 C-0.67 2.01 -0.34 1.02 0 0 Z " fill="#B7B7B8" transform="translate(1008,228)"/>
<path d="M0 0 C1.27351308 2.54702616 0.80191925 3.4282945 0.0625 6.125 C-0.13214844 6.84945312 -0.32679688 7.57390625 -0.52734375 8.3203125 C-0.68332031 8.87460938 -0.83929688 9.42890625 -1 10 C-1.66 10 -2.32 10 -3 10 C-2.95875 11.093125 -2.9175 12.18625 -2.875 13.3125 C-3 17 -3 17 -5 20 C-5.38499891 21.65549531 -5.72793135 23.3222433 -6 25 C-6.66 25 -7.32 25 -8 25 C-7.87625 26.2065625 -7.87625 26.2065625 -7.75 27.4375 C-8.03677526 31.52404747 -9.30806853 34.12361683 -11.0546875 37.76953125 C-12.33035814 40.77948139 -12.5814132 43.77090187 -13 47 C-13.87275043 49.41429332 -14.9072362 51.67193799 -16 54 C-16.66 54 -17.32 54 -18 54 C-13.91712117 37.1089023 -13.91712117 37.1089023 -11 29 C-9.87353568 25.6831884 -8.78787606 22.41412958 -8 19 C-7.34 19 -6.68 19 -6 19 C-5.87625 18.01 -5.7525 17.02 -5.625 16 C-5.04805273 11.91119976 -4.05036346 7.99138113 -3 4 C-2.34 4 -1.68 4 -1 4 C-0.67 2.68 -0.34 1.36 0 0 Z " fill="#AEAFAF" transform="translate(444,234)"/>
<path d="M0 0 C4.8333472 -0.08333357 9.23692563 0.04738513 14 1 C14.18170582 7.87637221 13.71017885 14.39991501 12.625 21.1875 C12.49867187 22.03763672 12.37234375 22.88777344 12.2421875 23.76367188 C11.32123571 29.72683468 9.90897256 35.27308231 8 41 C5.36 41 2.72 41 0 41 C0 40.67 0 40.34 0 40 C2.31 40 4.62 40 7 40 C6.97679687 39.43152344 6.95359375 38.86304688 6.9296875 38.27734375 C6.91164063 37.50519531 6.89359375 36.73304688 6.875 35.9375 C6.85179687 35.18339844 6.82859375 34.42929687 6.8046875 33.65234375 C7.00244702 30.96676942 7.67375104 28.668009 8.45654297 26.10327148 C9.60172807 21.67120966 10.04680752 17.09659101 10.625 12.5625 C10.7590625 11.54478516 10.893125 10.52707031 11.03125 9.47851562 C11.35886646 6.98629039 11.68008231 4.49322519 12 2 C8.04 1.67 4.08 1.34 0 1 C0 0.67 0 0.34 0 0 Z " fill="#C6C6C5" transform="translate(1120,408)"/>
<path d="M0 0 C15.84 0 31.68 0 48 0 C48 1.65 48 3.3 48 5 C47.34 5.33 46.68 5.66 46 6 C46 4.68 46 3.36 46 2 C30.82 2 15.64 2 0 2 C-0.33 2.99 -0.66 3.98 -1 5 C-0.67 3.35 -0.34 1.7 0 0 Z " fill="#9A9A9A" transform="translate(446,229)"/>
<path d="M0 0 C1.07507812 -0.00128906 2.15015625 -0.00257813 3.2578125 -0.00390625 C4.38960937 -0.00003906 5.52140625 0.00382813 6.6875 0.0078125 C7.81929687 0.00394531 8.95109375 0.00007812 10.1171875 -0.00390625 C11.19226562 -0.00261719 12.26734375 -0.00132812 13.375 0 C14.86580078 0.00169189 14.86580078 0.00169189 16.38671875 0.00341797 C18.6875 0.1328125 18.6875 0.1328125 19.6875 1.1328125 C19.72842937 3.46578683 19.72991723 5.79986475 19.6875 8.1328125 C17.0475 8.1328125 14.4075 8.1328125 11.6875 8.1328125 C11.6875 15.7228125 11.6875 23.3128125 11.6875 31.1328125 C11.3575 31.1328125 11.0275 31.1328125 10.6875 31.1328125 C10.6875 22.5528125 10.6875 13.9728125 10.6875 5.1328125 C13.3275 5.1328125 15.9675 5.1328125 18.6875 5.1328125 C18.6875 4.1428125 18.6875 3.1528125 18.6875 2.1328125 C10.7675 2.1328125 2.8475 2.1328125 -5.3125 2.1328125 C-5.6425 3.4528125 -5.9725 4.7728125 -6.3125 6.1328125 C-6.355221 4.46669345 -6.35313832 2.79898365 -6.3125 1.1328125 C-4.59682208 -0.58286542 -2.33877265 0.00265425 0 0 Z " fill="#C2C3C4" transform="translate(1239.3125,226.8671875)"/>
<path d="M0 0 C3 1 3 1 3.94921875 2.671875 C5.33170943 6.56333025 6.39357798 9.80183483 6 14 C6.99 13.67 7.98 13.34 9 13 C8.67 14.98 8.34 16.96 8 19 C6.68 18.67 5.36 18.34 4 18 C3.67 16.35 3.34 14.7 3 13 C2.67 15.31 2.34 17.62 2 20 C1.67 20 1.34 20 1 20 C0.34 16.37 -0.32 12.74 -1 9 C-1.66 9 -2.32 9 -3 9 C-3.33 9.99 -3.66 10.98 -4 12 C-4 10.02 -4 8.04 -4 6 C-2.68 6 -1.36 6 0 6 C0 4.02 0 2.04 0 0 Z " fill="#908F91" transform="translate(1272,229)"/>
<path d="M0 0 C0.99 0.495 0.99 0.495 2 1 C2.625 3.5625 2.625 3.5625 3 6 C3.99 6.33 4.98 6.66 6 7 C6.66 4.69 7.32 2.38 8 0 C8.66 0 9.32 0 10 0 C9.88487847 1.72985242 9.75744323 3.45888751 9.625 5.1875 C9.55539062 6.15042969 9.48578125 7.11335937 9.4140625 8.10546875 C8.99784147 11.01508938 8.20125904 13.32890774 7 16 C5.35 16 3.7 16 2 16 C-0.14336161 12.5233662 -0.21277626 9.78770805 -0.125 5.75 C-0.10695313 4.67234375 -0.08890625 3.5946875 -0.0703125 2.484375 C-0.04710937 1.66453125 -0.02390625 0.8446875 0 0 Z " fill="#838383" transform="translate(1274,241)"/>
<path d="M0 0 C27.06 0 54.12 0 82 0 C82 0.33 82 0.66 82 1 C55.6 1.33 29.2 1.66 2 2 C2 2.99 2 3.98 2 5 C2.66 5 3.32 5 4 5 C3.67 6.32 3.34 7.64 3 9 C0 3.375 0 3.375 0 0 Z " fill="#C9CACB" transform="translate(844,228)"/>
<path d="M0 0 C0.99 0.495 0.99 0.495 2 1 C2.87590767 3.80945896 3.65068087 6.58890768 4.375 9.4375 C6.38786547 17.01674408 8.81231541 24.13571646 12.03125 31.29296875 C15.20207132 38.65551978 16.61759682 46.14543649 18 54 C17.34 53.67 16.68 53.34 16 53 C14.73238238 48.70418473 14 45.49055702 14 41 C13.34 41 12.68 41 12 41 C11.32226562 38.96679688 11.32226562 38.96679688 10.64453125 36.93359375 C10.20862671 35.62648438 10.20862671 35.62648438 9.76391602 34.29296875 C9.12670999 32.3805331 8.49048828 30.46776923 7.85522461 28.5546875 C6.39980946 24.17554924 4.93835639 19.79982079 3.421875 15.44140625 C3.19008545 14.76859619 2.9582959 14.09578613 2.71948242 13.40258789 C2.10061575 11.61038129 1.47437576 9.82072565 0.84765625 8.03125 C0.04930521 5.17631726 -0.18111488 2.94174469 0 0 Z " fill="#B3B3B1" transform="translate(411,360)"/>
<path d="M0 0 C2.3129482 2.3129482 2.49580975 3.47904875 3.125 6.625 C3.29257812 7.44226563 3.46015625 8.25953125 3.6328125 9.1015625 C3.81457031 10.04128906 3.81457031 10.04128906 4 11 C4.66 11 5.32 11 6 11 C6.25523437 12.01707031 6.25523437 12.01707031 6.515625 13.0546875 C7.79403631 17.96433095 9.19060318 22.6435989 11.1875 27.3125 C12.74674424 31.0297857 13.43027637 33.91237444 13 38 C13.66 38 14.32 38 15 38 C15.6987693 39.76641683 16.38366583 41.53832664 17.0625 43.3125 C17.63677734 44.79169922 17.63677734 44.79169922 18.22265625 46.30078125 C19 49 19 49 18 52 C12.76594794 41.98924024 9.41224796 32.65846957 6.62939453 21.74365234 C5.22181525 16.41524689 3.24915934 11.48838012 0.953125 6.48828125 C0 4 0 4 0 0 Z " fill="#B4B5B5" transform="translate(299,371)"/>
<path d="M0 0 C2 3 2 3 2 6 C2.66 6 3.32 6 4 6 C4 7.32 4 8.64 4 10 C4.66 10 5.32 10 6 10 C6.52400391 11.80597656 6.52400391 11.80597656 7.05859375 13.6484375 C7.51812917 15.2239875 7.97777006 16.79950675 8.4375 18.375 C8.66759766 19.1690625 8.89769531 19.963125 9.13476562 20.78125 C9.35712891 21.54179687 9.57949219 22.30234375 9.80859375 23.0859375 C10.01282959 23.7876709 10.21706543 24.4894043 10.42749023 25.21240234 C10.97376321 27.07510758 10.97376321 27.07510758 12 29 C12.039992 30.99960012 12.04346799 33.00047242 12 35 C12.66 35 13.32 35 14 35 C14.53293835 36.74635165 15.05090663 38.49727652 15.5625 40.25 C15.85253906 41.22453125 16.14257812 42.1990625 16.44140625 43.203125 C16.99249836 45.96243932 16.93789609 47.3912824 16 50 C13.67409146 46.36576791 13.83734167 43.22911669 14 39 C13.34 39 12.68 39 12 39 C11.7666394 38.18547363 11.7666394 38.18547363 11.52856445 37.35449219 C8.77833388 27.81497681 5.99018548 18.52049122 1.96875 9.43359375 C0.70081395 6.2484157 0.23230499 3.40713987 0 0 Z " fill="#ABABAA" transform="translate(283,275)"/>
<path d="M0 0 C2.77842595 2.77842595 3.94471208 4.78366581 4.125 8.75 C4.08375 9.4925 4.0425 10.235 4 11 C4.66 11 5.32 11 6 11 C6.33 13.31 6.66 15.62 7 18 C7.66 18 8.32 18 9 18 C9.32613281 19.12277344 9.65226562 20.24554688 9.98828125 21.40234375 C10.42938655 22.91415034 10.87081344 24.42586312 11.3125 25.9375 C11.5388916 26.71424072 11.7652832 27.49098145 11.99853516 28.29125977 C13.19805761 32.37758732 14.4547478 36.4211589 15.875 40.4375 C17 44 17 44 16 46 C12.79815238 40.39676667 11.11960553 34.98814341 9.58007812 28.72485352 C8.27362912 23.59576033 6.37833597 19.05690268 3.953125 14.3671875 C2.8963057 11.74246416 2.82043914 9.80314456 3 7 C2.34 7 1.68 7 1 7 C0.67 4.69 0.34 2.38 0 0 Z " fill="#BBBBB9" transform="translate(327,404)"/>
<path d="M0 0 C6.98348678 -0.15887974 13.64657198 0.43418049 20.5625 1.375 C21.55185547 1.50132812 22.54121094 1.62765625 23.56054688 1.7578125 C29.16644487 2.50179365 34.54480034 3.50809046 40 5 C40 5.33 40 5.66 40 6 C34.39 6 28.78 6 23 6 C23 5.34 23 4.68 23 4 C22.17757813 3.95101563 21.35515625 3.90203125 20.5078125 3.8515625 C13.52371816 3.3838056 6.81965265 2.58560773 0 1 C0 0.67 0 0.34 0 0 Z " fill="#BDBEBE" transform="translate(1080,402)"/>
<path d="M0 0 C0.433125 0.474375 0.86625 0.94875 1.3125 1.4375 C3.02309613 3.23686957 3.02309613 3.23686957 6 4 C6 10.93 6 17.86 6 25 C5.67 25 5.34 25 5 25 C5 19.39 5 13.78 5 8 C4.01 8.495 4.01 8.495 3 9 C2.31270746 11.11846285 2.31270746 11.11846285 1.875 13.5625 C1.70742187 14.38878906 1.53984375 15.21507812 1.3671875 16.06640625 C1.24601562 16.70449219 1.12484375 17.34257812 1 18 C0.02408417 14.61682513 0.14143345 12.4342662 1 9 C0.01 9.33 -0.98 9.66 -2 10 C-1.125 2.25 -1.125 2.25 0 0 Z " fill="#969697" transform="translate(1283,232)"/>
<path d="M0 0 C0.33 1.32 0.66 2.64 1 4 C0.34 4 -0.32 4 -1 4 C-1.2475 4.78375 -1.495 5.5675 -1.75 6.375 C-3.07506363 10.21768452 -4.5655459 13.96668067 -6.09765625 17.73046875 C-6.78760953 19.46580578 -7.40945532 21.22836597 -8 23 C-8.66 23 -9.32 23 -10 23 C-10 23.99 -10 24.98 -10 26 C-11.859375 25.75390625 -11.859375 25.75390625 -14 25 C-15.265625 23.15234375 -15.265625 23.15234375 -16.25 20.9375 C-16.75273438 19.83728516 -16.75273438 19.83728516 -17.265625 18.71484375 C-17.50796875 18.14894531 -17.7503125 17.58304687 -18 17 C-17.34 16.67 -16.68 16.34 -16 16 C-13 20.625 -13 20.625 -13 24 C-12.34 24 -11.68 24 -11 24 C-10.01 20.04 -9.02 16.08 -8 12 C-7.34 12 -6.68 12 -6 12 C-5.34 9.69 -4.68 7.38 -4 5 C-3.34 5 -2.68 5 -2 5 C-2 4.01 -2 3.02 -2 2 C-1.34 2 -0.68 2 0 2 C0 1.34 0 0.68 0 0 Z " fill="#B8B8B8" transform="translate(1019,307)"/>
<path d="M0 0 C3.17598081 1.5879904 3.73656343 4.85162293 5 8 C5.495 9.14339844 5.99 10.28679687 6.5 11.46484375 C8.01431111 14.97063171 9.51136019 18.48324056 11 22 C11.35964844 22.83917969 11.71929688 23.67835938 12.08984375 24.54296875 C13.56992128 28.17836655 14.18376773 30.26092675 13 34 C8 24.22727273 8 24.22727273 8 19 C7.34 19 6.68 19 6 19 C5.49440092 17.56445975 4.9957251 16.1264798 4.5 14.6875 C4.2215625 13.88699219 3.943125 13.08648437 3.65625 12.26171875 C3 10 3 10 3 7 C2.34 7 1.68 7 1 7 C0.67 4.69 0.34 2.38 0 0 Z " fill="#C1C1C1" transform="translate(1163,289)"/>
<path d="M0 0 C2 3 2 3 2 6 C2.66 6 3.32 6 4 6 C4.66 9.96 5.32 13.92 6 18 C6.66 18 7.32 18 8 18 C9.54656904 23.96533774 10.83445193 29.9490696 12 36 C11.34 35.67 10.68 35.34 10 35 C10 34.01 10 33.02 10 32 C9.34 32 8.68 32 8 32 C7.82871582 31.32420898 7.65743164 30.64841797 7.48095703 29.95214844 C6.70036479 26.88354071 5.91276171 23.81677467 5.125 20.75 C4.85558594 19.68652344 4.58617187 18.62304688 4.30859375 17.52734375 C4.04433594 16.50253906 3.78007812 15.47773438 3.5078125 14.421875 C3.26691895 13.47924805 3.02602539 12.53662109 2.77783203 11.56542969 C2.08301741 9.0127742 2.08301741 9.0127742 0.91357422 6.83300781 C-0.26199496 4.47432973 -0.14435522 2.59839403 0 0 Z " fill="#A1A1A1" transform="translate(259,384)"/>
<path d="M0 0 C2.91691525 -0.05401695 5.83282724 -0.09368066 8.75 -0.125 C9.575 -0.14175781 10.4 -0.15851563 11.25 -0.17578125 C12.04921875 -0.18222656 12.8484375 -0.18867188 13.671875 -0.1953125 C14.4050293 -0.20578613 15.13818359 -0.21625977 15.89355469 -0.22705078 C18.31472658 0.03392394 19.85457621 0.8802534 22 2 C24.33006911 2.35543427 26.66327016 2.6913753 29 3 C29.33 3.33 29.66 3.66 30 4 C32.32817964 4.36760731 34.6618385 4.70241581 37 5 C37 5.33 37 5.66 37 6 C35.66717225 6.05553449 34.33361135 6.09346189 33 6.125 C31.88625 6.15980469 31.88625 6.15980469 30.75 6.1953125 C27.80108125 5.98587225 25.11660784 5.29840479 22.265625 4.54345703 C18.05999579 3.53464985 13.77844779 2.98443006 9.5 2.375 C8.5821875 2.2409375 7.664375 2.106875 6.71875 1.96875 C4.47966488 1.64221675 2.24011515 1.31937642 0 1 C0 0.67 0 0.34 0 0 Z " fill="#ABACAB" transform="translate(1161,266)"/>
<path d="M0 0 C0.33 0 0.66 0 1 0 C0.47772321 5.84950002 -0.81368272 10.57882552 -3 16 C-3.67735217 17.99640639 -4.34838935 19.99504414 -5 22 C-5.66 22 -6.32 22 -7 22 C-7.12375 22.639375 -7.2475 23.27875 -7.375 23.9375 C-8.1979822 27.97011276 -9.09885975 31.98423907 -10 36 C-13.55068699 25.27344911 -4.06395556 9.73731264 0 0 Z " fill="#B8B9B7" transform="translate(462,326)"/>
<path d="M0 0 C0.33 0.99 0.66 1.98 1 3 C1.66 3 2.32 3 3 3 C3 3.99 3 4.98 3 6 C3.99 6.33 4.98 6.66 6 7 C6.7734375 8.828125 6.7734375 8.828125 7.375 11.25 C8.84684755 16.74173227 10.91276159 21.87813828 13.109375 27.1171875 C14.00663116 30.021464 14.09945377 31.22454962 13 34 C12.65388672 33.00033203 12.65388672 33.00033203 12.30078125 31.98046875 C9.87930393 25.13716328 7.06315734 18.57708031 4 12 C2.19051972 8.05339692 0.65541176 4.32571763 0 0 Z " fill="#C6C5C4" transform="translate(1137,406)"/>
<path d="M0 0 C3.90450847 2.60300565 4.8798913 4.8328898 7 9 C7 9.99 7 10.98 7 12 C7.66 12 8.32 12 9 12 C9 12.99 9 13.98 9 15 C9.66 15 10.32 15 11 15 C12.19733988 17.11997834 13.38298713 19.24513676 14.5625 21.375 C14.90474609 21.97828125 15.24699219 22.5815625 15.59960938 23.203125 C16.46127095 24.76978241 17.23718183 26.38290862 18 28 C17.67 28.66 17.34 29.32 17 30 C12.95510987 26.65250472 11.40885839 22.93100435 10 18 C10 17.34 10 16.68 10 16 C9.01 15.67 8.02 15.34 7 15 C6.67 13.35 6.34 11.7 6 10 C5.34 10 4.68 10 4 10 C3.32845067 8.71086513 2.66291141 7.41859796 2 6.125 C1.62875 5.40570313 1.2575 4.68640625 0.875 3.9453125 C0 2 0 2 0 0 Z " fill="#B9BAB9" transform="translate(904,331)"/>
<path d="M0 0 C0.33 0 0.66 0 1 0 C1.04241723 2.33294775 1.04092937 4.66702567 1 7 C0.67 7.33 0.34 7.66 0 8 C-0.23653523 10.52596259 -0.42173692 13.03107207 -0.5625 15.5625 C-0.60568359 16.27341797 -0.64886719 16.98433594 -0.69335938 17.71679688 C-0.79971777 19.47761912 -0.90038846 21.2387832 -1 23 C-4.13411679 18.29882481 -4.77924048 13.62672347 -4 8 C-2.90278307 5.18269191 -1.54605125 2.59515746 0 0 Z " fill="#ADADAD" transform="translate(410,334)"/>
<path d="M0 0 C0.33 0 0.66 0 1 0 C1 4.62 1 9.24 1 14 C0.67 14 0.34 14 0 14 C-0.33 11.69 -0.66 9.38 -1 7 C-1.99 9.64 -2.98 12.28 -4 15 C-6.31 15 -8.62 15 -11 15 C-11.33 13.02 -11.66 11.04 -12 9 C-11.34 10.32 -10.68 11.64 -10 13 C-8.35 13 -6.7 13 -5 13 C-4.80664062 12.31292969 -4.61328125 11.62585938 -4.4140625 10.91796875 C-4.15367188 10.01691406 -3.89328125 9.11585938 -3.625 8.1875 C-3.24214844 6.84751953 -3.24214844 6.84751953 -2.8515625 5.48046875 C-2 3 -2 3 0 0 Z " fill="#D3D3D5" transform="translate(1286,244)"/>
<path d="M0 0 C2 2 2 2 2.1953125 5.9140625 C2.18200376 7.48449351 2.15813602 9.05486221 2.125 10.625 C2.11597656 11.42679688 2.10695313 12.22859375 2.09765625 13.0546875 C2.07406223 15.03658523 2.03819065 17.01832981 2 19 C1.01 19 0.02 19 -1 19 C-1.02683987 16.02077407 -1.04676037 13.04178705 -1.0625 10.0625 C-1.07087891 9.21236328 -1.07925781 8.36222656 -1.08789062 7.48632812 C-1.09111328 6.67744141 -1.09433594 5.86855469 -1.09765625 5.03515625 C-1.10289307 4.2862915 -1.10812988 3.53742676 -1.11352539 2.76586914 C-1 1 -1 1 0 0 Z " fill="#7F7F80" transform="translate(1290,238)"/>
<path d="M0 0 C0.33 0.99 0.66 1.98 1 3 C0.67 3.33 0.34 3.66 0 4 C-0.36760731 6.32817964 -0.70241581 8.6618385 -1 11 C-0.34 11 0.32 11 1 11 C2.4606285 13.64738916 3 14.89448334 3 18 C3.66 18 4.32 18 5 18 C5 18.99 5 19.98 5 21 C5.99 21 6.98 21 8 21 C8 22.65 8 24.3 8 26 C5.35247996 23.42215154 3.05567935 21.08351902 1 18 C1 16.68 1 15.36 1 14 C0.34 14 -0.32 14 -1 14 C-2.90185343 11.20315672 -2.99271185 9.89614391 -2.75 6.4375 C-2 3 -2 3 0 0 Z " fill="#B3B3B2" transform="translate(982,279)"/>
<path d="M0 0 C2.96085742 2.45915658 3.63966436 4.6099841 4.5 8.3125 C5.31906488 11.59307037 6.10405036 14.20810072 7.625 17.25 C9.2495701 20.49914021 9.64064026 23.40640261 10 27 C9.34 26.67 8.68 26.34 8 26 C8 25.01 8 24.02 8 23 C7.34 23 6.68 23 6 23 C4.99572108 19.54289448 3.9973056 16.08412303 3 12.625 C2.71382812 11.64015625 2.42765625 10.6553125 2.1328125 9.640625 C1.86210937 8.69960937 1.59140625 7.75859375 1.3125 6.7890625 C1.06113281 5.91975098 0.80976563 5.05043945 0.55078125 4.15478516 C0 2 0 2 0 0 Z " fill="#BDBDBD" transform="translate(205,233)"/>
<path d="M0 0 C3.66650622 3.49984684 5.2291231 6.10707975 5.625 11.1875 C5.69976562 12.08855469 5.77453125 12.98960937 5.8515625 13.91796875 C5.90054687 14.60503906 5.94953125 15.29210937 6 16 C6.66 16 7.32 16 8 16 C10.125 22.5 10.125 22.5 9 27 C8.34 24.03 7.68 21.06 7 18 C6.34 18 5.68 18 5 18 C4.34 14.37 3.68 10.74 3 7 C2.34 7 1.68 7 1 7 C0.67 4.69 0.34 2.38 0 0 Z " fill="#B5B6B5" transform="translate(402,408)"/>
<path d="M0 0 C0.33 0 0.66 0 1 0 C1 5.61 1 11.22 1 17 C0.01 17 -0.98 17 -2 17 C-2.05418326 14.91695462 -2.09287551 12.83350232 -2.125 10.75 C-2.14820313 9.58984375 -2.17140625 8.4296875 -2.1953125 7.234375 C-2.0103949 4.17213954 -1.60823023 2.55797249 0 0 Z " fill="#7C7E7D" transform="translate(1267,240)"/>
<path d="M0 0 C0.99 0.33 1.98 0.66 3 1 C3 9.58 3 18.16 3 27 C2.67 27 2.34 27 2 27 C1.67 20.4 1.34 13.8 1 7 C-1.97 7 -4.94 7 -8 7 C-8 6.67 -8 6.34 -8 6 C-5.36 6 -2.72 6 0 6 C0 4.02 0 2.04 0 0 Z " fill="#F0EFF0" transform="translate(1259,229)"/>
<path d="M0 0 C2 2 2 2 2 5 C2.66 5 3.32 5 4 5 C4.81756238 7.06049855 5.62884734 9.12348853 6.4375 11.1875 C6.88996094 12.33605469 7.34242187 13.48460937 7.80859375 14.66796875 C8.81093301 17.47123233 9.52012795 20.07112576 10 23 C8.09765625 22.36328125 8.09765625 22.36328125 6 21 C5.05859375 18.35546875 5.05859375 18.35546875 4.4375 15.1875 C3.76262744 11.81313719 3.19390882 9.32159326 1.41015625 6.36328125 C0 4 0 4 0 0 Z " fill="#BEBFBE" transform="translate(1141,237)"/>
<path d="M0 0 C0.66666667 1.33333333 1.33333333 2.66666667 2 4 C2.37125 4.639375 2.7425 5.27875 3.125 5.9375 C4.17440531 8.41109822 4.14780359 10.33953538 4 13 C4.99 12.67 5.98 12.34 7 12 C6.67 13.98 6.34 15.96 6 18 C4.68 17.67 3.36 17.34 2 17 C1.66151348 15.10507994 1.32943089 13.20901534 1 11.3125 C0.814375 10.25675781 0.62875 9.20101562 0.4375 8.11328125 C0.04931926 5.35095938 -0.08259976 2.78257957 0 0 Z " fill="#BFBDBF" transform="translate(1274,230)"/>
<path d="M0 0 C0.33 0 0.66 0 1 0 C0.44295693 10.96798603 0.44295693 10.96798603 -3 16 C-4.11602556 18.96428507 -5.07005348 21.97272729 -6 25 C-7.22095366 21.50347185 -6.76884532 19.47527427 -5.56640625 16.015625 C-5.24736328 15.08105469 -4.92832031 14.14648438 -4.59960938 13.18359375 C-4.08624023 11.73146484 -4.08624023 11.73146484 -3.5625 10.25 C-3.22412109 9.26644531 -2.88574219 8.28289062 -2.53710938 7.26953125 C-1.7007587 4.84293634 -0.85478572 2.42014972 0 0 Z " fill="#C7C6C5" transform="translate(470,301)"/>
<path d="M0 0 C2 1 2 1 2.8515625 2.9609375 C3.10679688 3.75757813 3.36203125 4.55421875 3.625 5.375 C3.88539062 6.16648437 4.14578125 6.95796875 4.4140625 7.7734375 C5 10 5 10 5 13 C5.99 13.33 6.98 13.66 8 14 C8.73046875 16.06640625 8.73046875 16.06640625 9.1875 18.5625 C9.34605469 19.38878906 9.50460937 20.21507812 9.66796875 21.06640625 C9.77753906 21.70449219 9.88710937 22.34257812 10 23 C4.96535438 20.48267719 2.93690603 11.06076052 1.1875 5.9375 C0.48838399 3.80152678 0 2.24668935 0 0 Z " fill="#B9B8B8" transform="translate(1081,267)"/>
<path d="M0 0 C0.99 0 1.98 0 3 0 C3.33 1.98 3.66 3.96 4 6 C4.66 6 5.32 6 6 6 C10.40774487 14.261959 10.40774487 14.261959 11 19 C7.96130589 17.48065294 7.35589694 15.01995228 6 12 C6 11.34 6 10.68 6 10 C5.34 10 4.68 10 4 10 C3.32845067 8.71086513 2.66291141 7.41859796 2 6.125 C1.62875 5.40570313 1.2575 4.68640625 0.875 3.9453125 C0 2 0 2 0 0 Z " fill="#B8B8B8" transform="translate(885,299)"/>
<path d="M0 0 C4.38527259 3.51197419 5.39225567 7.41598079 6.8125 12.625 C7.04130859 13.40101563 7.27011719 14.17703125 7.50585938 14.9765625 C9.13754931 20.72490137 9.13754931 20.72490137 8 23 C0 6.14893617 0 6.14893617 0 0 Z " fill="#BFC0BF" transform="translate(357,278)"/>
<path d="M0 0 C1.65 0 3.3 0 5 0 C5 1.98 5 3.96 5 6 C3.68 6 2.36 6 1 6 C0.67 6.99 0.34 7.98 0 9 C-1 8 -1 8 -1.125 5.0625 C-1 2 -1 2 0 0 Z " fill="#7F807F" transform="translate(1267,229)"/>
<path d="M0 0 C0.33 0.99 0.66 1.98 1 3 C0.05133653 4.76647681 -0.9075658 6.52976582 -1.95703125 8.23828125 C-3.10950516 10.07663174 -3.10950516 10.07663174 -4 12.5625 C-5.27506135 15.67046204 -7.08298226 18.25227457 -9 21 C-9.33 19.68 -9.66 18.36 -10 17 C-9.34 17 -8.68 17 -8 17 C-7.690625 15.8553125 -7.690625 15.8553125 -7.375 14.6875 C-5.44105609 9.50101406 -2.7214854 4.80966916 0 0 Z " fill="#D4D4D3" transform="translate(1030,286)"/>
<path d="M0 0 C2 2 2 2 3 9 C-5.25 9 -13.5 9 -22 9 C-22 8.67 -22 8.34 -22 8 C-14.74 7.67 -7.48 7.34 0 7 C0 4.69 0 2.38 0 0 Z " fill="#A2A4A5" transform="translate(1227,442)"/>
<path d="M0 0 C0.66 0 1.32 0 2 0 C2.81690177 2.22763988 3.62861872 4.4569486 4.4375 6.6875 C4.66759766 7.31333984 4.89769531 7.93917969 5.13476562 8.58398438 C6.38053667 12.03242308 7.39804449 15.3813479 8 19 C4.85310698 17.42655349 4.17892298 14.2913358 2.875 11.1875 C2.59785156 10.55779297 2.32070312 9.92808594 2.03515625 9.27929688 C0.59415111 5.89683899 0 3.74060973 0 0 Z " fill="#B5B6B7" transform="translate(1219,423)"/>
<path d="M0 0 C2 3 2 3 2 5 C2.66 5 3.32 5 4 5 C4.66 9.95 5.32 14.9 6 20 C5.34 19.67 4.68 19.34 4 19 C3.3671875 16.49609375 3.3671875 16.49609375 2.875 13.4375 C2.62363281 11.91962891 2.62363281 11.91962891 2.3671875 10.37109375 C2.24601562 9.58863281 2.12484375 8.80617188 2 8 C1.34 8 0.68 8 0 8 C0 5.36 0 2.72 0 0 Z " fill="#BABBBB" transform="translate(271,420)"/>
<path d="M0 0 C0.33 0 0.66 0 1 0 C1.21824777 6.0018137 0.5056904 11.19233704 -1 17 C-3.64 17 -6.28 17 -9 17 C-9 16.67 -9 16.34 -9 16 C-6.69 16 -4.38 16 -2 16 C-2.02320313 15.43152344 -2.04640625 14.86304688 -2.0703125 14.27734375 C-2.19191688 9.07441352 -1.67723492 4.92687757 0 0 Z " fill="#A9ABAB" transform="translate(1129,432)"/>
<path d="M0 0 C1.40907283 2.81814566 0.50872691 4.17277204 -0.4375 7.125 C-0.72496094 8.03507812 -1.01242187 8.94515625 -1.30859375 9.8828125 C-1.65083984 10.93082031 -1.65083984 10.93082031 -2 12 C-2.66 12 -3.32 12 -4 12 C-4.12375 13.134375 -4.2475 14.26875 -4.375 15.4375 C-4.58125 16.613125 -4.7875 17.78875 -5 19 C-5.66 19.33 -6.32 19.66 -7 20 C-6.40750664 17.41348078 -5.80158701 14.83139849 -5.1875 12.25 C-5.02185547 11.52039063 -4.85621094 10.79078125 -4.68554688 10.0390625 C-3.7276338 6.06281956 -2.83975708 3.09199911 0 0 Z " fill="#C5C5C4" transform="translate(484,263)"/>
<path d="M0 0 C6.6 0 13.2 0 20 0 C20 0.33 20 0.66 20 1 C14.06 1.33 8.12 1.66 2 2 C2 2.99 2 3.98 2 5 C2.66 5 3.32 5 4 5 C3.67 6.32 3.34 7.64 3 9 C0 3.375 0 3.375 0 0 Z " fill="#BFBFBF" transform="translate(844,228)"/>
<path d="M0 0 C0.33 0 0.66 0 1 0 C1.30473087 5.18042487 0.85161292 7.72258062 -2 12 C-3.40220843 14.97026947 -4.70460867 17.98180396 -6 21 C-7.26022579 18.04498781 -6.99051731 16.97513148 -5.8203125 13.90625 C-5.26085937 12.7821875 -4.70140625 11.658125 -4.125 10.5 C-1.57101756 5.42407969 -1.57101756 5.42407969 0 0 Z " fill="#B9BBBB" transform="translate(425,289)"/>
<path d="M0 0 C3.44079622 1.72039811 3.88905349 5.50674133 5.11328125 8.98828125 C6.30239105 13.02706387 6.72491439 16.80494447 7 21 C4.66277162 17.49415743 3.58766828 13.92449951 2.375 9.9375 C2.14554687 9.20466797 1.91609375 8.47183594 1.6796875 7.71679688 C0 2.27280971 0 2.27280971 0 0 Z " fill="#BCBCBA" transform="translate(271,241)"/>
<path d="M0 0 C1.12377697 3.30435084 0.89554742 5.0506862 -0.4375 8.25 C-0.72496094 8.95640625 -1.01242187 9.6628125 -1.30859375 10.390625 C-1.53675781 10.92171875 -1.76492188 11.4528125 -2 12 C-3.32 12 -4.64 12 -6 12 C-6.66 9.36 -7.32 6.72 -8 4 C-6.515 4.99 -6.515 4.99 -5 6 C-5 6.99 -5 7.98 -5 9 C-1.13892543 6.42595029 -1.05680308 4.38979741 0 0 Z " fill="#D8D8D6" transform="translate(435,409)"/>
<path d="M0 0 C2.79224529 1.39612264 3.44282114 3.30488274 5 6 C5.680625 6.969375 6.36125 7.93875 7.0625 8.9375 C8.95506845 11.92897917 10.03168246 14.61088862 11 18 C7.96938234 15.97958823 7.27760233 15.24314437 6 12 C6 11.01 6 10.02 6 9 C5.01 9 4.02 9 3 9 C2.01 6.03 1.02 3.06 0 0 Z " fill="#C9C8C7" transform="translate(990,305)"/>
<path d="M0 0 C0.33 0 0.66 0 1 0 C1 2.97 1 5.94 1 9 C0.34 9 -0.32 9 -1 9 C-0.67 11.64 -0.34 14.28 0 17 C-0.66 17 -1.32 17 -2 17 C-2.05418326 14.91695462 -2.09287551 12.83350232 -2.125 10.75 C-2.14820313 9.58984375 -2.17140625 8.4296875 -2.1953125 7.234375 C-2.0103949 4.17213954 -1.60823023 2.55797249 0 0 Z " fill="#C1C0BE" transform="translate(1161,249)"/>
<path d="M0 0 C0.66 0 1.32 0 2 0 C2 5.61 2 11.22 2 17 C3.65 17 5.3 17 7 17 C7 17.33 7 17.66 7 18 C5.02 18 3.04 18 1 18 C0.93941406 17.10796875 0.87882812 16.2159375 0.81640625 15.296875 C0.73261719 14.12640625 0.64882812 12.9559375 0.5625 11.75 C0.48128906 10.58984375 0.40007812 9.4296875 0.31640625 8.234375 C0.09350711 5.12133032 0.09350711 5.12133032 -0.59765625 2.640625 C-0.73042969 2.09921875 -0.86320312 1.5578125 -1 1 C-0.67 0.67 -0.34 0.34 0 0 Z " fill="#B8B8BA" transform="translate(1286,240)"/>
<path d="M0 0 C0.33 1.32 0.66 2.64 1 4 C1.66 4 2.32 4 3 4 C3.53293835 5.74635165 4.05090663 7.49727652 4.5625 9.25 C4.85253906 10.22453125 5.14257812 11.1990625 5.44140625 12.203125 C5.99249836 14.96243932 5.93789609 16.3912824 5 19 C2.67409146 15.36576791 2.83734167 12.22911669 3 8 C2.34 8 1.68 8 1 8 C-0.35439668 5.29120665 -0.06501451 2.99066732 0 0 Z " fill="#BFBFBD" transform="translate(294,306)"/>
<path d="M0 0 C5.12881696 -0.08997924 9.9301448 0.06880211 15 1 C15.33 1.33 15.66 1.66 16 2 C18.32817964 2.36760731 20.6618385 2.70241581 23 3 C23 3.33 23 3.66 23 4 C16.89728981 4.25427959 11.87863183 3.63830723 6 2 C4.00398694 1.6435691 2.005155 1.30077325 0 1 C0 0.67 0 0.34 0 0 Z " fill="#C7C8C8" transform="translate(1175,268)"/>
<path d="M0 0 C0.5625 1.9375 0.5625 1.9375 1 4 C0.67 4.33 0.34 4.66 0 5 C-0.49478625 7.50991571 -0.89966611 10.02882686 -1.3046875 12.5546875 C-2.06024492 15.2118726 -2.8975996 16.26523246 -5 18 C-4.80083984 17.14728516 -4.80083984 17.14728516 -4.59765625 16.27734375 C-3.5115242 11.52848903 -2.61687618 6.83219676 -2 2 C-1.34 2 -0.68 2 0 2 C0 1.34 0 0.68 0 0 Z " fill="#B3B4B2" transform="translate(476,283)"/>
<path d="M0 0 C2.5654594 2.5654594 2.54046087 4.47686668 3 8 C3.66 8 4.32 8 5 8 C7.09230769 12.43076923 7.09230769 12.43076923 6.625 15.3125 C6.41875 15.869375 6.2125 16.42625 6 17 C6 16.34 6 15.68 6 15 C5.34 15 4.68 15 4 15 C2.24265549 10.02638346 0.67415387 5.2584002 0 0 Z " fill="#B3B3B4" transform="translate(1212,406)"/>
<path d="M0 0 C1.72274487 2.58411731 2.68895522 4.54902656 3.6875 7.4375 C3.95949219 8.19933594 4.23148437 8.96117187 4.51171875 9.74609375 C5.04729142 12.21829721 4.80445309 13.62983284 4 16 C-0.59225513 5.62642369 -0.59225513 5.62642369 0 0 Z " fill="#A9AAAA" transform="translate(274,298)"/>
<path d="M0 0 C4.13333333 6.2 4.13333333 6.2 3.625 9.25 C3.41875 9.8275 3.2125 10.405 3 11 C2.34 10.01 1.68 9.02 1 8 C0.34 9.32 -0.32 10.64 -1 12 C-1.02712066 10.56260487 -1.04645067 9.12506137 -1.0625 7.6875 C-1.07410156 6.88699219 -1.08570313 6.08648437 -1.09765625 5.26171875 C-1 3 -1 3 0 0 Z " fill="#CDCBCB" transform="translate(1270,242)"/>
<path d="M0 0 C0.66 0 1.32 0 2 0 C3.60355101 3.50776784 4.22036864 6.14354879 4 10 C4.66 10 5.32 10 6 10 C6 11.65 6 13.3 6 15 C5.67 14.01 5.34 13.02 5 12 C4.34 12 3.68 12 3 12 C2.49663233 10.37604003 1.99741024 8.75079459 1.5 7.125 C1.2215625 6.22007812 0.943125 5.31515625 0.65625 4.3828125 C0 2 0 2 0 0 Z " fill="#A4A3A3" transform="translate(313,361)"/>
<path d="M0 0 C0.66 0 1.32 0 2 0 C0.91103333 5.75762166 -0.29336293 11.39247819 -2 17 C-2.66 17 -3.32 17 -4 17 C-2.91103333 11.24237834 -1.70663707 5.60752181 0 0 Z " fill="#B1B2B2" transform="translate(415,317)"/>
<path d="M0 0 C0.33 0.99 0.66 1.98 1 3 C1.66 3 2.32 3 3 3 C3 3.99 3 4.98 3 6 C3.99 6.33 4.98 6.66 6 7 C6.33 8.98 6.66 10.96 7 13 C6.01 12.67 5.02 12.34 4 12 C2.03638798 8.07277596 0.65802821 4.3429862 0 0 Z " fill="#BDBDBB" transform="translate(1137,406)"/>
<path d="M0 0 C0.33 1.32 0.66 2.64 1 4 C0.34 4 -0.32 4 -1 4 C-2.86551426 7.58752742 -4.42535928 11.27812193 -6 15 C-7.32827107 12.34345786 -6.72245548 11.40567615 -5.8125 8.625 C-4.51525844 4.89543052 -3.15678042 2.50365344 0 0 Z " fill="#BFBFBF" transform="translate(1046,254)"/>
<path d="M0 0 C0.66 0 1.32 0 2 0 C2 0.99 2 1.98 2 3 C2.66 3 3.32 3 4 3 C4 3.66 4 4.32 4 5 C4.66 5 5.32 5 6 5 C6.66 7.97 7.32 10.94 8 14 C5 12 5 12 4.3125 8.875 C4.209375 7.92625 4.10625 6.9775 4 6 C3.01 5.67 2.02 5.34 1 5 C0.67 3.35 0.34 1.7 0 0 Z " fill="#C2C2C0" transform="translate(853,245)"/>
<path d="M0 0 C1.25127906 3.54667178 0.72285053 5.72253438 -0.4375 9.25 C-0.72496094 10.14203125 -1.01242187 11.0340625 -1.30859375 11.953125 C-1.53675781 12.62859375 -1.76492188 13.3040625 -2 14 C-2.66 14 -3.32 14 -4 14 C-4 12.35 -4 10.7 -4 9 C-3.34 9 -2.68 9 -2 9 C-1.855625 8.071875 -1.71125 7.14375 -1.5625 6.1875 C-1 3 -1 3 0 0 Z " fill="#C7C7C5" transform="translate(450,362)"/>
<path d="M0 0 C0.99 0.495 0.99 0.495 2 1 C2.62669199 3.16467461 3.15427374 5.35864524 3.625 7.5625 C3.88539063 8.76003906 4.14578125 9.95757812 4.4140625 11.19140625 C4.60742188 12.11824219 4.80078125 13.04507812 5 14 C1.32887903 10.6004414 0.09315159 7.14248662 -0.125 2.125 C-0.08375 1.42375 -0.0425 0.7225 0 0 Z " fill="#A6A5A5" transform="translate(411,360)"/>
<path d="M0 0 C0.66 0 1.32 0 2 0 C4.32590854 3.63423209 4.16265833 6.77088331 4 11 C1.22157405 8.22157405 0.05528792 6.21633419 -0.125 2.25 C-0.063125 1.13625 -0.063125 1.13625 0 0 Z " fill="#AFB0AF" transform="translate(290,346)"/>
<path d="M0 0 C0.93045933 2.55144824 1.08564091 3.74006478 0.22265625 6.359375 C-0.16019531 7.14828125 -0.54304688 7.9371875 -0.9375 8.75 C-1.50791016 9.94882812 -1.50791016 9.94882812 -2.08984375 11.171875 C-2.39019531 11.77515625 -2.69054687 12.3784375 -3 13 C-3.33 13 -3.66 13 -4 13 C-4 11.35 -4 9.7 -4 8 C-3.34 8 -2.68 8 -2 8 C-2.04125 7.05125 -2.0825 6.1025 -2.125 5.125 C-2 2 -2 2 0 0 Z " fill="#A0A09F" transform="translate(486,253)"/>
<path d="M0 0 C0.66 0 1.32 0 2 0 C2.43200679 4.75207471 0.98489083 7.78210698 -1 12 C-1.66 12 -2.32 12 -3 12 C-2.01 8.04 -1.02 4.08 0 0 Z " fill="#A8A8A9" transform="translate(429,276)"/>
<path d="M0 0 C3.82932166 3.33916849 3.82932166 3.33916849 4.609375 6.359375 C4.65578125 7.14828125 4.7021875 7.9371875 4.75 8.75 C4.80671875 9.54921875 4.8634375 10.3484375 4.921875 11.171875 C4.94765625 11.77515625 4.9734375 12.3784375 5 13 C4.34 12.67 3.68 12.34 3 12 C2.1484375 9.27734375 2.1484375 9.27734375 1.375 5.9375 C0.98441406 4.28041016 0.98441406 4.28041016 0.5859375 2.58984375 C0.39257812 1.73519531 0.19921875 0.88054687 0 0 Z " fill="#BEBEBC" transform="translate(278,262)"/>
<path d="M0 0 C0.99 0.33 1.98 0.66 3 1 C3.66 4.3 4.32 7.6 5 11 C4.34 10.67 3.68 10.34 3 10 C3 9.01 3 8.02 3 7 C2.34 7 1.68 7 1 7 C0.67 4.69 0.34 2.38 0 0 Z " fill="#BFBFBF" transform="translate(266,409)"/>
<path d="M0 0 C1.98 0.99 1.98 0.99 4 2 C4 2.99 4 3.98 4 5 C4.99 5 5.98 5 7 5 C7 6.65 7 8.3 7 10 C3.60582235 6.87378374 1.3937282 4.43458973 0 0 Z " fill="#C0C0BF" transform="translate(983,295)"/>
<path d="M0 0 C1.485 0.99 1.485 0.99 3 2 C3 2.66 3 3.32 3 4 C3.66 4 4.32 4 5 4 C5.66 6.31 6.32 8.62 7 11 C4.35247996 8.42215154 2.05567935 6.08351902 0 3 C0 2.01 0 1.02 0 0 Z " fill="#AAA9A9" transform="translate(869,271)"/>
<path d="M0 0 C1.43343546 2.86687092 0.56303792 4.50563683 -0.25 7.5625 C-0.62898437 9.04943359 -0.62898437 9.04943359 -1.015625 10.56640625 C-1.34046875 11.36949219 -1.6653125 12.17257813 -2 13 C-2.99 13.33 -3.98 13.66 -5 14 C-4.54636829 12.41531323 -4.08688548 10.83230076 -3.625 9.25 C-3.36976563 8.36828125 -3.11453125 7.4865625 -2.8515625 6.578125 C-2.0790066 4.23919428 -1.16374324 2.16557438 0 0 Z " fill="#B1B3B2" transform="translate(1006,231)"/>
<path d="M0 0 C0.66 0 1.32 0 2 0 C2 0.99 2 1.98 2 3 C2.66 3 3.32 3 4 3 C4.33 5.64 4.66 8.28 5 11 C1.19015156 8.22920113 0.93159248 4.37131855 0 0 Z " fill="#ACACAC" transform="translate(263,399)"/>
<path d="M0 0 C1 2 1 2 0.22265625 4.6015625 C-0.16019531 5.59929687 -0.54304688 6.59703125 -0.9375 7.625 C-1.50791016 9.12933594 -1.50791016 9.12933594 -2.08984375 10.6640625 C-2.39019531 11.43492187 -2.69054687 12.20578125 -3 13 C-3.33 13 -3.66 13 -4 13 C-4 10.69 -4 8.38 -4 6 C-3.34 6 -2.68 6 -2 6 C-1.34 4.02 -0.68 2.04 0 0 Z " fill="#939392" transform="translate(444,378)"/>
<path d="M0 0 C3.14958831 3.42346555 3.56179109 6.44262737 4 11 C3.67 10.34 3.34 9.68 3 9 C2.34 9 1.68 9 1 9 C0.67 6.03 0.34 3.06 0 0 Z " fill="#D2D2D1" transform="translate(279,310)"/>
<path d="M0 0 C3.80984844 2.77079887 4.06840752 6.62868145 5 11 C4.34 10.67 3.68 10.34 3 10 C3 9.01 3 8.02 3 7 C2.34 7 1.68 7 1 7 C0.67 4.69 0.34 2.38 0 0 Z " fill="#A2A2A3" transform="translate(1151,437)"/>
<path d="M0 0 C4.21422242 2.88341534 5.76075855 5.04303419 7 10 C2.78577758 7.11658466 1.23924145 4.95696581 0 0 Z " fill="#C9CAC9" transform="translate(915,351)"/>
<path d="M0 0 C0.33 0.66 0.66 1.32 1 2 C1.66 2 2.32 2 3 2 C5 5 5 5 4.625 7.1875 C4.41875 7.785625 4.2125 8.38375 4 9 C0 4.5 0 4.5 0 0 Z " fill="#BFBEBE" transform="translate(976,310)"/>
<path d="M0 0 C0.66 0 1.32 0 2 0 C2.33 2.97 2.66 5.94 3 9 C0 6 0 6 -0.1875 2.8125 C-0.125625 1.884375 -0.06375 0.95625 0 0 Z " fill="#ADAFAE" transform="translate(399,398)"/>
<path d="M0 0 C2.64465038 3.1254959 3.84414715 6.08788267 5 10 C4.34 10 3.68 10 3 10 C0.96564469 6.27034861 0 4.33094958 0 0 Z " fill="#C9C9C9" transform="translate(1092,295)"/>
<path d="M0 0 C0.66 0 1.32 0 2 0 C1.74438677 2.3431213 1.40729228 4.67843403 1 7 C0.01 7.495 0.01 7.495 -1 8 C-1.04241723 5.66705225 -1.04092937 3.33297433 -1 1 C-0.67 0.67 -0.34 0.34 0 0 Z " fill="#79797A" transform="translate(1282,241)"/>
<path d="M0 0 C2.7972908 2.06756277 3.02692273 3.14440371 3.6875 6.6875 C3.790625 7.780625 3.89375 8.87375 4 10 C1.41050731 8.70525365 1.03964236 7.67336607 0 5 C-0.125 2.25 -0.125 2.25 0 0 Z " fill="#A3A3A3" transform="translate(1087,280)"/>
<path d="M0 0 C0.33 0 0.66 0 1 0 C1.36923077 7.50769231 1.36923077 7.50769231 -0.5 10 C-0.995 10.33 -1.49 10.66 -2 11 C-1.125 3.375 -1.125 3.375 0 0 Z " fill="#BEC0C0" transform="translate(432,265)"/>
<path d="M0 0 C0.99 0 1.98 0 3 0 C2.855625 0.515625 2.71125 1.03125 2.5625 1.5625 C1.84190099 4.68509571 1.42733561 7.82550692 1 11 C0.67 11 0.34 11 0 11 C0 7.37 0 3.74 0 0 Z " fill="#898787" transform="translate(1273,238)"/>
<path d="M0 0 C5.57142857 5.14285714 5.57142857 5.14285714 6 9 C5.34 8.67 4.68 8.34 4 8 C4 7.34 4 6.68 4 6 C3.34 6 2.68 6 2 6 C1.34 4.02 0.68 2.04 0 0 Z " fill="#C3C5C4" transform="translate(992,337)"/>
<path d="M0 0 C0.33 0.66 0.66 1.32 1 2 C-1.48387097 8.74193548 -1.48387097 8.74193548 -4 10 C-4 8.68 -4 7.36 -4 6 C-3.34 6 -2.68 6 -2 6 C-1.34 4.02 -0.68 2.04 0 0 Z " fill="#B8B9B8" transform="translate(1024,297)"/>
<path d="M0 0 C2.50298434 2.93828597 3.46930939 5.17902761 4 9 C3.01 8.67 2.02 8.34 1 8 C-0.35439668 5.29120665 -0.06501451 2.99066732 0 0 Z " fill="#A3A5A4" transform="translate(267,279)"/>
<path d="M0 0 C0.99 0.495 0.99 0.495 2 1 C2 1.99 2 2.98 2 4 C2.66 4 3.32 4 4 4 C4.33 5.65 4.66 7.3 5 9 C3.0625 8.4375 3.0625 8.4375 1 7 C0.25 3.375 0.25 3.375 0 0 Z " fill="#A3A3A3" transform="translate(1146,251)"/>
</svg>
